<?xml version="1.0" encoding="UTF-8"?>
<svg id="Layer_2" data-name="Layer 2" xmlns="http://www.w3.org/2000/svg" viewBox="0 0 1341.4 494.74">
  <defs>
    <style>
      .cls-1 {
        fill: #fff;
      }
    </style>
  </defs>
  <g id="Layer_1-2" data-name="Layer 1">
    <g>
      <path class="cls-1" d="M1239.19,171.39c-21.2,8.83-63.37,27.67-78.03.28-5.05-9.43-1.1-18.54-14.87-15.93-9.66,1.84-23.04,14.47-22.01,24.9.24,2.41,4.41,9.26,6.19,11.15,10.14,10.83,47.86,14.63,62.29,13.27,5.27-.5,24.55-4.52,29.36-6.14,9.89-3.34,19.17-15.13,25.1-23.34,3.01-1.73,4.63,4.38,5.62,3.7,3.11-6.27,6.38-12.45,8-19.35,2.12-9.01,1.44-17.76,2.83-26.91,4.39-28.87,31.25-72.39,65.65-56.57,6.9,3.17,13.97,11.54,11.6,19.65-4.49,4.65-6.22,11.02-9.72,16.21-5.44,8.06-16.47,16.18-23.2,23.79-2.58,2.92-15.35,17.54-11.98,21.11,3.92,1.35,7.34-5.23,9.25-5.6,2.36-.46,4.97,2.92,5.11,5.18.29,4.61-8.95,21.41-10.97,27.32-5.57,16.36-11.4,48.5-.94,63.22,6.45,9.07,21.25,11.49,19.4,24.28-2.22,15.37-22.88,9.79-32.66,6.24-4.74-1.72-13.77-7.29-17.48-7.52-5.67-.35-31.04,9.93-32.18,8.71-.35-9.28,15.17-9.5,22.06-10.55-.16-4.97-5.3-1.32-8.26-1.06-2.84.25-5.89-.26-8.52.12-21.83,3.1-39.06,21.62-63.32,20.19-13.19-.78,1.14-20.61,4.29-25.95-6.72.8-13.14,4.79-17.76,9.57-2.47,2.55-5.96,9.83-9.5,9.61-5.62-.34-10.16-9.54-17.79-11.1-10.01-2.04-27.1,6.44-25.48-10.97-11.17,10.72-27.01,8.87-41.29,14.36-4.94,1.9-22.66,12.86-25.44,12.1-8.96-2.45-1.9-8.34-.09-12.68,9.48-22.74-7.03-31.09-16.98-46.08-13.78-20.75,10.71-37.55,7.28-56.22-1.24-6.77-11.05-10.39-12.79-17.91-1.86-8.04,1.06-16.09,1.51-24.05-4.45-1.02-12.17,3.88-13.41-2.42-1.44-7.33,9.08-38.35,7.64-39.79-6.1-.82-11.88,7.27-17.55,5.6-2.69-.79-9.78-19.73-16.1-24.25-14.07-10.06-34.91,1.07-28.77,19.17,2.23,6.57,16.77,12.3,9.58,18.14-3.96,3.22-6.54-1.46-9.3-2.16-6.27-1.59-15.05,7.42-17.3,12.96-8.08,19.91,7.32,30.94,23.81,37.2,6.55,2.49,13.2,2.78,19.16,4.82,13.56,4.65-4.94,17.05-9.13,21.55-11.62,12.5-18.29,42.95,3.36,48.48,3.67.94,7.82.55,11.74,1.7,12.17,3.54,23.41,21.83,17.09,33.81-3.03,5.73-8.66,7.16-13.45,10.56-1.27.9-1.56,2.67-2.19,3.07-1.07.68-2.73.13-4.62,1.61-3.07,2.4-4.08,9.35-6.66,12.58l1.61,2.29c1.14.34,11.57-2.07,13.34-2.74,5.27-2.01,13.1-13.09,14.85,1.37,1.51,12.49-3.82,16.35-11.53,24.48,6.02,2.81,12.97-.54,18.61.06,6.56.71,18.98,5.7,24.09,5.7,4.1,0,6.95-2.61,9.98-3.28,40.04-8.8,73.72-14.1,113.57.65,15.76,5.83,26.25,15.79,43.78,7.79,7.08-3.23,20.58-16.49,25.8-17.45,2.16-.4,3.93.03,5.87.9,1.2,1.89-2.52,7.54.58,6.58,7.75-2.4,17.81-14.58,24.57-19.57,14.3-10.56,39.46-20.26,55.49-8.64,4.44,3.22,18.92,16.92,6.37,18.67-6.52.91-6.93-1.61-10.83-2.69s-23.66,1.91-27.32,3.92c-3.9,2.14-6.2,2.45-9.33,4.07-2.66,1.38-21.99,21.34-25,24.89-14.24,16.81-17.21,27.71-37.79,39.44-7.01,3.99-8.81,5.79-17.16,2.02-7.6-3.42-9.01-11.12-20.35-9.29-2.09.34-8.66,5.51-10.08,7.19-1.65,1.95-1.97,5.11-3.9,7.61-6.79,8.78-8.32-3.37-10.99-8.18-12.07-21.81-45.57-37.26-70.1-34.5-13.27,1.49-15.91,20.2-6.7,23.98,3.3,1.35-.36-5.47-.47-6.31-1.42-10.25,16.81-11.03,23.8-9.34,2.17.52,19.58,9.17,20.4,10.3,1.57,2.17.94,5.07.64,7.51-3.28,26.49-30.31,46.23-54.45,53.01-5.1,1.43-13.75,1.97-17.5,3.38-1.21.46-1.03,2.29-2.28,2.71-1.93.66-4.93-.17-7.34.37-7.11,1.58-13.24,7.31-13.07-5.34,5.37-4.08,11.32-5.79,16.65-10.27,5.75-4.84,14.47-16.12,14.66-23.74.39-15.12-30.09-18.97-32.29-12.04-1.77,5.59,17.57,17.63,5.38,23.54-8.94,4.34-17.92-2.73-24.66.3-4.23,1.9-4.95,11.46-6.55,15.51-4.58,11.54-14.12,13.26-24.99,8.8-1.2-13.26,9.46-23.42,12.09-36.08,2.47-11.88.59-31.34-15.45-30.84-1.78.61-2.36,4.41-2.54,6.14-1.84,17.96,2.47,34.56-3.83,52.77-7.92,22.87-51.54,53.6-75.81,45.07-15.24-5.36-7.99-25.42,1.45-33.07,8.63-6.98,18.84-6.14,26.87-12.47,1.86-3.59-9.01-3.57-6.78-8.62,6.88-5.96,16.36-7.78,20.19-17.3,3.92-9.77.15-13.83-2.87-22.06-1.54-4.19-.59-10.78-6.9-11.39-1.34-.13-1.47.55-2.09,1.43-2.89,4.06-4.65,8.56-8.27,12.85-9.04,10.73-21.31,18.39-29.68,29.81-10.94,14.92-11.44,31.55-20.9,46.26-11.64,18.1-42.63,14.34-61.69,16.03-4.54.4-20.13,5.22-21.94.7-2.46-6.13,4.66-6.72,8.66-9.18,10.59-6.51,19.24-13.64,24.77-25.12,4.05-8.4,4.85-18.75,12-25.44.74-3.29-6.13-2.34-7.9-2.12-13.43,1.7-25.19,11.07-37.22,15.55-16.84,6.28-31.73,7.19-49.26,9.27-4.24.51-21.14,6.07-16.05-4.53,2.66-5.53,10.89-13.35,14.64-19.91,4.84-8.49,10.11-17.98,2.28-26.59-2.85-3.14-15.73-8.33-15.94-9.23-1.8-7.61,9.93-10.9,10.63-15.25.65-4.06-2.29-7.73-2.81-11.54-2-14.84,15.86-39.2,27.79-46.88,2.48-1.6,5.35-1.67,7.56-3,4.33-2.61,2.33-5.47,3.19-9.28.97-4.27,3.09-9.69,3.53-13.79.55-5.15-2.64-12.05,6.46-12.55,7.13-.39,10.69,11.79,14.67,12.75,6.83-3.88,10.4-5.25,18.09-2.76,2.24.73,7.62,5.08,8.69,1.57,3.28-10.71-6.24-20.57-15.96-23.08-3.85-.99-12.93-.73-14.12-3.15-2.72-5.48,4.5-7.27,7.72-10.53,14.97-15.12,25.27-45.46,21.29-66.45-1.55-8.18-6.46-14.48-8.14-20.64-.82-3.01-.31-8.43,3.69-7.5,2.16.5,2.87,3.61,5.65,4.86,7.18,3.24,18.21.94,25.48-1.42,5.02-1.63,13.73-4.63,15.35-9.6,4.73-14.53.03-25.48-5.29-38.91,1.02-3.48,6.99-7.98,10.55-5.75,1.62,1.01,8.79,15.9,11.52,19.18,8.6,10.36,19.59,8.88,28.32-.42,17.46-18.6-15.49-18.75-25.17-24.8-14.35-8.96-12.26-43.43-5.8-57.01,1.85-3.89,9.5-12.76,12.5-6.21,1.82,3.97-3.54,10.9,4.55,17.43,11.07,8.94,30.74,1.82,43.63,1.49,16.63-.42,27.72,3.63,42.62-8.25,4.24-3.38,9.16-13.02,13.24-13.66,1.32-.21,16.9,4.85,21.03,5.47,13.33,2.02,35.82,4.77,48.32.57,4.98-1.67,9.36-5.47,13.95-7.9,7.84,6.31,4.55,16.76,14.5,21.71,27.11,13.48,72.11,2.91,97.93-10.27,9.28-4.74,29.87-19.66,38.46-21.05,3.28-.53,8.84.85,7.82,4.86-.51,2.01-11.32,8.63-13.72,11.32-4.85,5.42-9.34,18.2-8.19,25.28,1.22,7.52,12.14,9.64,17.86,12.84,28.77,16.11,14.48,42.6,12.8,67.81-.69,10.42-.04,21.42,3.14,31.38,1.34,4.21,8.29,14.85,5.25,17.79ZM1249,178.34c-9.31,9.54-16.39,20.72-30.44,23.76-25.78,5.57-53.71,8.02-79.2-1.91-6.72-2.62-15.85-11.11-16.96-18.55-2.18-14.6,18.06-30.93,32.08-28.21,4.62.89,6.19,12.82,8.6,17.3,12.62,23.49,52.92,9.61,71.55.43,1.28-.63,2.5-1.24,3.41-2.38-8.11-15.45-10.42-31.03-9.16-48.46,1.7-23.59,15.26-48.88-11.85-63.97-5.92-3.3-17.53-5.88-18.82-13.8-.7-4.33,1.08-14.15,2.59-18.4,3.09-8.7,12.59-14.39,19.4-19.92-3.37-5.02-10.16-.22-14.4,1.9-14.3,7.18-27.07,17.02-42.22,23.03-23.91,9.48-62.04,15.45-86.05,4.51-10.24-4.66-8.49-13.42-14.28-21.28-4.35,2.22-8.24,5.53-12.91,7.16-12.69,4.42-37.53,1.58-51.2-.57-4.67-.74-16.18-5.19-19.26-4.69-3.72.61-4.3,4.97-6.29,7.21-15.21,17.06-27.58,13.7-47.52,13.84-14.11.1-32.37,7.78-45.28-.71-8.66-5.69-5.94-10.77-7.01-18.91-.18-1.33.52-1.66-1.42-1.41-7.61,2.26-11.27,20.42-11.9,27.44-.73,8.15,1.04,25.36,6.61,31.53,8.46,9.39,49.11,7.72,29.27,30.24s-35.23.24-42.79-18.17c-1.6-1.14-6.57,2.35-7.33,4.24,3.74,9.61,8.43,19.9,7.17,30.47-.27,2.29-2.35,11.26-3.56,12.75-2.98,3.67-21.4,9.55-26.43,10.03-4.67.45-13.87.29-17.75-2.4-1.98-1.36-1.28-4.3-4.78-3.35.44,6.83,4.98,12.41,6.96,19.42,8.74,30.88-5.31,57.46-26.17,78.9-5.71,5.87,5.41,3.99,9.65,4.77,11.92,2.17,22.66,14.18,18.94,26.7-1.76,5.92-9.24-.36-12.98-1-8.64-1.49-13.32,3.83-15.86,3.48-5.67-.79-7.54-13.66-15.53-12.35-5.14.85-2.94,7.37-3.51,10.94-1.18,7.35-4.08,14.56-4.79,22.07-1.7,2.67-7.41,2.99-10.42,4.94-7.9,5.12-24.78,26.61-26.48,35.89-1.59,8.65,1.52,10.26,2.36,16.92,1.34,10.63-7.82,8.51-10.41,17.09,4.82,4.02,11.62,5.22,15.8,10.14,13.35,15.69-9.88,37.31-17.79,50.37.63,3.32,10.78-.06,13.09-.33,9.68-1.14,21.01-1.29,30.34-3.25,16.86-3.54,29.84-12.46,45.33-18,4.66-1.67,19.34-7.48,22.11-1.9,1.77,3.55-2.9,6.6-4.51,9.91-2.7,5.57-3.93,11.83-6.54,17.45-6.41,13.81-18.2,24.17-32.04,30.33-2.93,1.92-1.84,4.76,1.66,4.63,4.02-.15,10.02-2.35,14.55-2.82,18.22-1.87,50.6,2.01,61.69-15.08,9.5-14.62,9.96-31.24,20.91-46.25,8.25-11.31,19.88-18.57,28.72-28.85,2.48-2.88,9.59-14.78,10.47-15.44,2.58-1.93,7.35.18,9.07,2.59s1.52,6.33,2.51,9c.83,2.24,2.36,4.13,3.09,6.51,5.53,18.09-5.4,26.91-19.88,34.28l6.62,5.9c2.38,7.59-16.28,9.97-21.67,12.61-6.88,3.37-11.77,8.12-14.19,15.55-5.69,17.51,6.42,19.58,20.82,17.94,22.44-2.56,55.01-26.78,59.98-49.41,3.27-14.91.4-26.97,1.24-40.97.55-9.22,1.36-17.11,12.74-12.76,12.18,4.65,12.17,23.64,9.61,34.14-1.57,6.42-14.06,27.89-11.37,31.89,1.39,2.07,8.9,2.16,11.35,1.65,12.64-2.61,9.31-22.91,17.03-26.14s16.21,3.31,23.97-.03c11.53-4.97-9.62-16.1-5.66-22.87,4.28-7.33,18.69-4.21,25.21-1.45,23.26,9.84,4.05,34.79-9.64,43.83-3.72,2.46-15.24,5.03-7.7,10.58,17.02-6.51,35.28-7.16,51.56-15.67,18.06-9.44,37.31-28.6,35.98-50.4-11.28-5.85-24.08-15.19-37.22-8.4-7.12,3.68-1.2,9.18.26,14.63-1.6,2.68-4.82.26-6.66-1-10.98-7.56-6.17-25.86,7.13-27.28,25.67-2.75,52.47,9.66,68.64,29.24,4.37,5.29,5.51,10.29,9.11,15.85,2.95.69,4.99-7.7,6.68-9.62.68-.77,6.45-5.34,7.5-5.94,15.64-8.93,20.48,11.61,34.73,8.81,2.32-.46,5.09-3.85,7.32-5.15,16.12-9.4,18.78-14.25,30.05-28.48,19.47-24.62,31.09-40.34,64.6-42.9,3.56-.27,19.05,8.94,17.55-.63-.42-2.69-10.85-11.85-13.77-13.16-14.26-6.41-34.46.99-46.63,9.36-8,5.51-20.1,19.86-28.84,22.05-6.39,1.6,1.64-10.02-6.05-8.03-3.45.9-16.2,12.47-21.18,15.32-20.83,11.93-30.24,1.32-49.35-5.68-30.69-11.23-58.9-10.89-90.62-4.74-8.35,1.62-23.81,7.11-31.06,7.4-6.85.28-18.8-5.4-25.93-5.73-3.61-.17-8.81,1.19-13.41.95-2.8-.14-5.35-.87-8.11-1.01,1.97-5.97,9.53-8.62,11.99-14.39,2.28-5.34,2.02-12.06-.54-17.21-4.01.04-5.89,4.07-9.98,5.74s-19.09,6.03-17.8-2.37c.08-.54,4.02-8.87,4.61-9.86,4.16-6.98,17-10.29,21.55-16.83,7.53-10.81-3.75-28.71-15.38-32.1-4.03-1.17-7.07-.05-9.81-.67-4.32-.98-12.95-6.85-14.89-11.11-5.88-12.9-.46-31.11,8.64-41.28,4.79-5.35,12.5-8.99,14-16.68-6.93-3.61-15-3.79-22.4-6.56-17.8-6.66-33.66-18.24-25.71-39.63,2.54-6.83,12.73-17.07,20.49-14.63,2.59.81,4.53,5.86,8.29.17-4.33-6.21-11.47-8.19-12.41-17.14-2.4-22.68,24.27-29.12,37.26-13.27,2.63,3.2,10.29,19.06,11.36,19.41,3.27,1.06,12.34-7.23,17.51-6.25l1.97,1.05-8.65,41.11c.7,2.78,11-.69,13.34.76,1.33,9.93-5.73,20.38,1.08,30.1,3.3,4.71,9.05,5.71,10.34,12.69,3.02,16.37-11.57,28.38-11.32,43.86s18.27,23.47,22.04,37.52c2.52,9.39,1.75,22.62-5.69,29.68,4.66,6.09,11.26-1.37,16.28-3.86,6.95-3.45,14.35-6.9,21.89-8.81,11.18-2.83,24.44-1.6,31.4-12.75,5.17,1.32-.16,9.37,4.35,11.94,6.5,3.7,18.05-2.87,28.11,3.56,3.72,2.38,6.06,7.16,10.89,8.36,3.92-2.88,6.23-7.85,10.35-11.42,5.68-4.91,14.01-8.82,21.61-8.61.73.62-6.62,9.77-7.48,11.22-1.68,2.84-6.65,11.7-4.85,14.54,1.01.44,2.23.99,3.32,1.05,7.8.44,27.05-5.11,34.31-8.72,17.59-8.75,15.56-9.63,36.5-11.48,4.52-.4,13.35-5.2,11.14,3.93,9.7-4.64,14.68,1.83,23.05,5.27,9.21,3.78,31.53,11.11,33.19-4.29,1.04-9.69-13.58-14.19-19.23-22.14-11.63-16.35-4.06-51.42,2.57-69.27,2.96-7.98,9.07-15.89,8.4-24.69-2.04-2.12-8.05,8.32-12.97,3.85-4.86-4.41,6.98-17.95,10.12-21.58,11.64-13.47,20.83-18.59,29.91-35.33,3.33-6.13,7.63-7.13,2.53-15.38-8.32-13.45-30.29-12.8-41.98-3.92-26.85,20.41-26.96,42.5-31.06,72.56-1.36,9.97-5.78,21.25-12.69,28.55l-2.41-4.78ZM1252.85,271.4c-4.52.11-11.1,1.52-14.39,4.78l14.39-4.78Z"/>
      <path class="cls-1" d="M333.42,30.49c-13.42-.66-26.62,3.87-38.3,10.15-2.58,1.39-9.21,4.78-10.43,6.86-3.34,5.69,4.57,10.26,9.26,11.62,34.87,10.1,45.86,4.77,78.73-2.34,14.69-3.18,25.08-1.62,39.1,3.51,14.89,5.45,16.85,15.57,19.95,29.95,4.6,21.38,3.39,39.45-10.9,56.89-5.97,7.28-20.42,18.57-29.7,20.28-4.03.74-24.98-4.36-29.5-6.13-16.76-6.54-11.09-28.78-13-41.69-.98-6.67-6.59-10.08-5.5-17.05-2.82-2.97-30.61,6.02-35.22,8.45-3.29,1.74-5.16,6.46-9.63,4.3-4.82-2.33-.34-8.73-1.22-9.86-5.1,2.08-8.53,6.03-10.33,11.25-.57,1.67-3.64,13.22-3.64,14.18.02,2.21,2.24,4.22,2.53,7.61.42,4.95-1.39,5.67-1.93,8.74-2.16,12.09,10.25,20.63,9.37,28.48-.34,2.99-4.41,10.06-7.75,9.24-11.37-4.84-16.3-18.14-28.54-20.01,0,14.14-.18,29.42,3.35,43.18,1.32,5.13,8.55,17.92,4.29,21.55-3.83,3.26-4.17-.57-5.81-1.8-8.08-6.04-22.11-12.7-29.66-2-6.89,9.77,3.64,15.25,5.33,23.45,1.35,6.57.57,15.65-4.47,20.59-3.79,3.72-14.19,6.27-16.67,9.24-1.79,2.14-1.96,8.5-3.02,11.54.37,1.89,6.91,5.64,8.75,5.63,3.09-.02,13.24-4.49,17.29-4.81,10.23,1.83,4.97,5.98,3.3,11.08-8.19,24.91,7.87,52.66,35.92,49.35,16.1-1.9,21.57-14.51,41.79-3.19,10.36,5.8,21.9,27.04,36.07,13.87,9.87-9.18-13.71-17.93-15.91-21.54-6.46-10.61,15.88-6.39,20.65-7.3,2.19-.42,3.37-2.64,5.66-2.6,3.62.06,3.03,4.88,5.14,6.54,1.7,1.34,13.86,4.6,14.67,3.79.04-56.26-61.58-11.16-89.77-19.14-5.85-1.66-9.5-5.57-10.56-11.51-2.25-12.66,3.64-20.01,12.55-27.85,2.14-1.88,12.81-8.5,12.98-9.28,1.82-8.25-18.56-4.35-18.23-13.16.52-1.75,6.73-3.54,8.71-4.79,10.49-6.67,18.87-16.3,24.45-27.43-1.94-7.06-5.75-13.16-7.21-20.76-.35-1.81.29-3.97-.07-5.47-.28-1.19-2.93-.8-2.97-3.05-.04-2.49,3.12-2.56,3.87-4.12,1.96-4.08,2-19.28,3.2-25.34.86-4.38,7.37-24.44,10.94-25.54,1.15-.36,2.35-.33,3.52-.06,1.23.42,4.08,8.96,5.25,11.09,2.78,5.07,6.57,9.65,9.3,14.69,5.04,9.3,6.38,21.83,17.02,26.16,11.8,4.8,19.13-6,27.36-9.57,4.52-1.96,17.54-4.24,22.05-2.41,6.7,2.72,10.42,14.22,7.82,20.77-4.03,10.16-25.17,21.74-32.08,31.31-1.29,3.1,2.09,5.37,3.18,8.32,4.6,12.46-11.88,17.06-11.36,22.77.14,1.48.98,2.05,2.01,2.89,4.26,3.47,14.02,7.58,19.46,11.24,12.68,8.54,23.44,19.64,36.13,28.18,10,3.13,9.81-9.93,13.19-10.94,12.12-.99,6.25,11.55,7.1,19.41.85,7.89,5.37,17.28,7.1,25.51,3.67,17.4,5.15,38.23-6.72,52.79-14.15,17.35-30.63,11.17-49.9,12.47-23.43,1.58-33.07,8.33-53.29,15.8-10.11,3.74-23,3.62-33.1-.41-2.45,5.33-2.64,8.62-7.66,12.41-10.54,7.96-23.14,5.23-35.22,2.6-24.28-5.3-28.73-9.51-43.95-28.02-2.11-2.56-3.09-6.12-5.72-8.67-10.67-10.35-23.53-17.14-38.84-14.77-6.07.94-15.35,6.38-20.66,7.25-10.17,1.67-24.29,1.79-34.96.28-12.4-1.76-13.69-15.37-18.44-24.74-4.21-8.32-8.78-15.71-17.32-20.1-4.71-2.42-14.57-2.77-12.63-9.09,5.77-5.29,17.21-8.03,25.07-6.23,2.98.69,5.53,4.96,9.31,4.59-.95-10.75-7.86-18.72-18.21-21.6-22.31-6.21-47.51-7.08-69.07-14.41-11.96-4.07-17.98-8.81-24.81-19.33-18.89-29.1-15.05-69.48,5.74-96.55,6.82-8.88,21.66-17.38,31.81-22.88,9.3-5.04,19.35-7.58,28.83-12.16,9.38,7.53-2.96,15.51-7.46,22.01-9.86,14.23-17.59,43.48-12.37,60.16,1.24,3.97,2.38,6.18,5.91,8.49,10.84,7.1,32.94,20.15,45.73,21.44,5.56.56,10.23-.64,15.35-.94,5.61-.33,11.54,1.01,16.79-1.45,2.19-1.77.19-4.71-1.57-6.1-3.42-2.71-16.99-8.72-21.77-10.86-3.08-1.38-7.85-1.94-10.19-3.24s-2.91-4.66-5.84-5.7c-.02-3.69,12.69-5.05,15.87-5.25,14.26-.92,28.66,4.96,42.69,6.7-.17-15.16-14.28-26.63-24.44-36.48-5.92-5.74-11.33-7.31-14.77-15.93-6.84-17.11,3.13-18.49,17.14-21.47.92-1.26-4.86-6.09-5.95-7.94-2.89-4.9-3.23-10.93-2.67-16.5,2.3-22.71,43.63-41.05,63.8-39.82,3.81.23,7.24,3.02,10.91.81-1.82-23.46,17.57-54.23,39.14-63.04,19.28-7.88,62.24-19.48,82.39-17.4,7.11.73,7.59,4.03,6.14,10.45ZM331.49,23.02c-1.72-.29-3.43-.9-5.18-1.05-20.7-1.76-56.87,9.04-77.03,16.03-19.69,6.82-39.62,32.89-41.38,53.62-.25,2.98,2.36,7.11-1.07,10.43s-8.35-.01-12.08-.36c-19.09-1.78-59.81,17.36-61.78,38.76-.5,5.38.07,10.57,3.02,15.19,1.22,1.91,8.56,7.83,7.52,9.26-11.68,4.4-25.97,1.45-19.37,18.9,3.53,9.33,22.47,22.61,29.95,31.46,3.13,3.7,14.39,20.52,8.62,24.02-3,1.82-19.2-3.24-23.8-4.05-11.22-1.98-18.17-2.8-29.5-.3-1.16.26-2.96-.73-2.35,1.44,1.39,4.96,8.79,5.09,13.11,7.04,4.8,2.17,19,8.48,22.34,11.24,5.46,4.52,3.5,9.94-3.41,10.91s-23.17,1.69-29.65,1.04c-12.26-1.24-29.79-11.94-39.87-18.66-3.75-2.5-7.29-2.33-10.36-6.91-10.39-15.47.03-52.83,10.01-67.39,3.96-5.78,12.79-11.01,9.95-18.29-9.62,3.44-19.42,6.51-28.44,11.31-23.98,12.77-41.6,27.39-46.9,55.76-2.02,10.83-1.91,31.59,1.22,42.05,11.55,38.57,33.66,36.74,66.68,43.66,10.85,2.27,26.74,4.95,36.78,8.32,11.04,3.7,18.57,14.06,17.71,25.94-9.05-2.22-11.18-7.09-21.61-5.77-1.18.15-11.46,3.95-11.95,4.36-1.29,1.05-1.07,1.84-.97,3.33,18.65,3.58,24.86,14.83,32.49,30.37,4.3,8.77,3.4,16.5,15.26,18.32,9.69,1.48,24.16,1.33,33.63-.4,5.4-.98,13.59-5.71,19.95-6.93,16.52-3.16,29.03,3.96,40.72,14.75,3.33,3.08,4.21,6.6,6.7,9.61,13.26,16.1,15.37,19.67,36.26,25.15,12.11,3.18,27.85,7.75,38.91.11,6.45-4.46,4.62-8.3,8.98-13.14,11.35,3.07,21.66,4.39,32.9.33,19.73-7.11,29.36-14.26,52.33-15.8,18.75-1.26,37.43,4.87,50.77-12.56,20.32-26.57-1.54-57.53-1.35-84.81.02-2.34,2.39-7.72-1.59-9.01-4.7-1.53-3.79,3.26-5.26,6-2.28,4.25-7.77,6.72-12.4,4.96-12.71-8.49-23.48-19.58-36.12-28.16-4.48-3.04-22.02-11.69-22.87-15.42-.99-4.36,7.78-9.73,10.09-13.06,6.46-9.34-4.15-13.78-1.43-19.65.56-1.21,7.47-7.6,9.1-9.15,6.12-5.8,23.05-16.99,23.79-25.15.42-4.65-3.14-13.03-7.71-14.88-3.89-1.58-16.17.75-20.13,2.41-4.67,1.96-10.3,8.28-15.88,10.05-8.26,2.63-20.3-2.21-24.05-9.99-1.74-3.6-2.43-8.08-4.27-12.04-4.85-10.41-13.9-18.86-16.05-30.5-1.06-.05-1.93-.17-2.9.45-2.12,1.34-8.81,21.45-9.46,25.08-.94,5.28-1.09,21.94-3.53,25.25-.81,1.09-2.41,1.42-3.29,2.47,4.15,1.75,3.06,8.37,4.29,12.97,3.5,13.05,10.39,11.55,1.28,25.22-4.38,6.59-10.3,13.22-16.78,17.76-1.84,1.29-10.68,5.62-10.87,6.41-1.1,4.6,19.89,3.12,17.77,12.09-7.16,7.33-17.41,11.7-22.97,21.07-4.87,8.2-5.53,20.89,4.53,25.05,25.26,10.46,83.34-33.45,92.53,12.07,2.63,13.03-1.45,14.17-13.43,9.59-4.95-1.89-5.12-3.31-8.02-7.41-8.61,5.13-16.4.09-25.3,2.84-2.13,3.17,9.07,8.02,11.52,10.05,18.22,15.08-2.05,27.23-16.03,18.91-11.54-6.86-14.37-17.63-30.62-19.27-9.31-.94-14.2,3.97-22.25,6.33-31.17,9.16-52.75-21.81-43.67-50.37,1.23-3.86,6.48-7.47-1.08-8.85-8.98,1.92-18.03,8.21-25.85.84-3.63-3.42-2.47-6.16-1.29-10.61,3.57-13.44,20.25-8.69,23.28-22.77,3.36-15.61-9.33-18.91-7.19-32.14,1.03-6.39,10.54-11.2,16.59-11.01,4.94.16,12.89,4.23,16.93,7.15,2.03,1.47,1.33,4.22,4.81,3.33.72-6.86-3.57-12.55-5.28-19.18-3.47-13.42-2.7-27.12-4.37-40.76,3.71-14.36,17.63,3.86,22.63,8.11,2.92,2.48,6.68,4.04,9.58,6.57,11.39-9.11-2.48-18.1-4.1-28.36-1.15-7.3,2.2-11.33,1.77-16.09-.27-2.96-2.78-4.3-2.94-6.76-.06-.93,3.43-14.28,4.04-16.04,2.28-6.6,6.67-10.2,12.75-13.14,3.27,2.76.18,6.96.48,10.52,4.74,1.34,5.81-2.52,8.92-4.03,11.71-5.68,26.02-9.3,39.05-8.44-3.19,7.54,3.78,11,4.72,17.83,1.58,11.45-3.6,35.4,11.65,41.11,3.38,1.27,17.14,4.61,20.82,5.08,17.17,2.18,36.22-15.51,43.3-30.09s6.65-27.68,3.31-43.37c-2.95-13.85-4.67-23.75-18.99-28.99-32.93-12.05-43.48,2.97-72.93,4.87-10.38.67-43.39-3.39-51.32-9.22-13.3-9.78,3.48-17.38,12.07-21.39,10.25-4.78,21.49-8.58,32.97-7.81l-.11-5.66Z"/>
      <path class="cls-1" d="M556.16,115.97c1.42,1.34,10.32-6.48,11.53-8.13,1.83-2.5,1.5-7.06,6.1-6.96,4.87.1,5.04,15.1,3.49,18.93,6.59-1.95,10.21,1.16,16.26,2.45,1.56.33,11.14,1.78,11.56,1.39,1.5-6.36-9.4-17.11-9.61-20.7-.46-7.94,11.35-2.24,15.13-1.6,22.13,3.71,40.85,13.85,60.38,25.02,5.63,3.22,10.5,7.37,16.16,10.48,1.43-.53,1.84-1.85,2.43-3.08,4.16-8.69,5.36-20.05,9.82-29.51,4.57-9.7,13.55-22.44,22.44-28.41,2.75-1.85,13.74-8.52,16.21-5.02,2.39,13.92-7.57,22.46-9.87,36.3-5.38,32.31,7.82,35.63,21.25,58.81,3.64,6.28,10.86,25.28,11.82,32.31.53,3.9.14,7.84.25,11.74,3.16.11,6.98-2.34,8.98,1.21,1.44,3.53-5.01,21.82-6.89,26.3-2.13,5.09-8.23,17.05-12.15,20.47-2.12,1.85-5.84,2.98-8.47,4.96-6.67,5.02-12.93,11.23-19.73,15.77-10.91,7.29-25.54,13.51-35.95,20.66-2.74,1.88-4.73,5.71-6.11,6.61-1.21.79-3.82.63-4.69,1.85-.72,1,.31,2.91-.18,4.52-1.56,5.14-7.3,8.57-4.51,14.67,2.94,6.42,23.48,14.22,24.32,19.9.73,4.95-8.75,3.64-4.13,10.76,2.56,3.94,6.17,4.14,7.05,10.21,3.97,27.41-31.41,48.2-53.65,54.6-15.87,4.57-31.7,8.15-36.34-12.27,5.97-6.43,7.94-13.97,17.91-14.87,2.92-.26,4.81.89,7.24.7,9.66-.76,22.21-4.78,21.69-16.59-.56-12.46-9.04-7.61-16.58-12.28-3.09-1.91-5.46-5.19-6.86-8.49-1.61-3.8-4.25-15.58-4.39-19.65-.23-6.59,2.49-16.65,1.94-22.91-.97-10.97-18.9-22.06-28.21-25.6-3.44-1.31-11.19-.65-11.09-6.09.06-3.09,2.2-4.44,5.15-4.32,4.19.17,14.53,2.17,18.85,3.25s8.81,6.15,10.54.02c-5.97-2.78-2.64-6.56-3.08-11.24-.51-5.43-7.19-13.03-2.41-17.77,7.83-7.76,25.03,9.42,33.08,10.11,1.24.11,15.87-6.03,16.65-6.96.86-1.01.83-1.25.49-2.48-.95-3.34-8.71-12.09-11.78-14.21-3.57-2.47-9.67-2.68-7.86-8.15,1.62-4.93,12.33-1.07,15.58.44,7.4,3.44,23.87,17.8,30.92,18.07,3.53.14,8.32-4.96,10.38-7.72,14.55-19.6-8.86-39.06-26.54-44.29-23.05-6.82-44.71,3.24-67.9,3.14l12.45,3.86c.22,3.61-3.7,9.77-7.38,10.34-1.34.21-2.79-.67-4.33-.52-3.99.4-8.85,1.56-12.7,1.7-23.56.85-45.35-3.56-66.23-14.43l-1.27,2.16,1.6,23.61c-5.15,3.26-8.17-.66-12.08-1.56-3.75-.85-8.27-.64-12.13-2.21-.81.14-1.5,2.58-1.37,3.28.24,1.33,12.59,11.77,14.66,13.12,4.43,2.89,18.48,6.6,19.53,10.27,1.91,6.68-7.49,14.67-13.83,15.53-2.64.36-12.38-1.22-11.82,2.37l5.95,6.55c11.75.88,32.17,14.47,42.98,11.85,3.65-.88,8.06-7.27,11.55-3.01,3.08,3.76-5.36,21.07-5.63,26.2-.16,2.96,1.66,5.55,1.72,8.44.05,2.59-1.28,4.76-.98,7.53.62,5.7,7.2,7.88,8.29,14.59.2,1.21-.68,2.78-.47,4.49.3,2.41,2.24,2.32,2.64,3.35.99,2.56,1.64,10.52,2.21,11.52.36.63,6.58,4.73,8.01,4.95,5.56.87,11.99-3.85,15.16-1.78,3.62,2.36,1.56,6.48,3.41,9.11,2.24,3.17,13.39,3.76,8.2,10.93-3.1,4.28-7.31,2.26-11.36,3.02-14.29,2.69-15.71,10.29-27.26,15.91-15.71,7.64-31.26,4.16-43.78,20.51-7.54,9.84-5.37,15.57-7.49,26.09-2.31,11.41-27.42,23.72-37.98,26.31-19.49,4.79-41.97-2.28-59.69,5.56-9.12,4.03-8.05,16.79-19.2,11.51-8-3.78-3.97-18.48-17.75-18.79-7.16-.16-25.7,4.89-33.31,7.07-7.5,2.14-18.23,7.68-24.71,8.93-10.73,2.07-8.41-17.4-6.48-23.8,6.76-22.37,22.05-24.82,41.59-29.41,6.17-1.45,20.38-8.63,23.66-.8l-1.23,6.42c5.28.97,10.91-1.06,15.83-1.04,14.35.04,28.69,1.51,43.17.08,10.44-1.04,6.98-3.39,8.43-10.76,2.64-13.34,12.09-28.9,24.99-34.5,6.96-3.02,14.8.13,19.7-7.17,12.78-19.07.69-64.6-10.96-82.75-2.9-4.52-15.62-18.89-19.87-21.39-2.89-1.69-11.33-3.63-14.64-3.67-3.73-.04-14.92,3.57-15.83-2.4-.64-4.22,10.09-20.16,14.08-22.4,2.04-1.14,4.55-.65,6.1-2.52-9.97-11.65-29.91-23.95-29.37-41.1.08-2.49,1.59-5.12,1.36-7.65-.19-2.02-4.81-4.49-2.68-9.29l7.55-.13c-.08-7.13,5.9-11.46,6.77-17.7,1.01-7.21-3.21-20.21-2.38-23.46,1.89-7.39,7.96.28,10.77,1.78,16.82,8.99,50.12,2.47,37.59-21.24-5.18-9.79-15.33-14.85-25.49-17.69-2.46-.69-10.2.19-7.48-5.95,2.96-6.68,20.71-10.33,27.38-10.11-11.79-9.3-31.52,1.01-38.15-16.54-15.18-40.21,38.1-44.19,62.06-28.46,5.29,3.47,9.66,8.64,14.48,12.39.96.75,1.23,1.85,2.88,1.43l1.35-23.04c6.3-11.7,14.28,6.65,17.4,12.47,3.96,7.41,13.39,26.36,12.95,34.05-.41,7.13-5.45,14.89-7.69,21.61ZM553.28,118.85c1.28-8.58,9.36-18.46,8.59-27.22-.37-4.19-5.75-15.7-7.77-20.13-1.69-3.71-12.02-23.93-14.24-25.12-5.59-2.99-3.64,5.58-3.82,7.66-.15,1.65-.85,3.2-.99,4.86-.47,5.6,1.4,11.3-3.37,15.8-10.85-10.73-20.09-19.89-35.77-22.75-19.6-3.58-46.14-.95-43.41,25.17.27,2.55,3.49,12.06,5.06,13.64,7.86,7.88,31.87.06,37.14,13.22l-9.94.6c-7.53,1.15-14.61,3.02-19.77,8.99,0,1.77,13.85,4.6,16.96,6.05,10.71,5.01,24.64,20.82,17.43,33.14-7.2,12.31-29.43,12.43-40.82,6.56-3.43-1.77-4.63-5.11-7.98-4.98.15,10.06,4.61,20.68.16,30.39-.95,2.07-3.03,3.78-3.75,5.84-1.78,5.12.25,10.16-8.89,7.9-.48,3.02,2.6,4.5,2.87,7.27.21,2.14-.97,4.32-1,6.6-.28,20.43,20.37,29.21,30.76,44.16-5.55,1.72-8.35,1.17-12.51,5.74-1.57,1.72-9.78,14.92-9.49,16.24.92,4.13,11.5,1.41,14.77,1.54,3.72.15,11.4,1.8,14.62,3.63,2.05,1.17,14.15,13.21,16.13,15.54,15.56,18.41,29.42,70.2,15.66,91.47-5.51,8.52-13.07,4.84-20.65,8.13-9.83,4.27-20.71,18.32-23.07,28.75-1.26,5.58.45,13.43-5.48,15.63-22.43,2.96-45.14,1.53-67.72,1.85-1.48-1.49,5.79-10.59-2.23-10.3-3.91.14-16.71,4.73-21.71,6.04-15.07,3.93-24.32,4.43-32.51,20.27-2.83,5.48-7.43,24.49-1.13,27.72,1.26.64,22.76-7.79,26.66-8.9,8.48-2.42,31.91-8.66,39.4-6.35,10.61,3.27,7.05,19.93,17.93,19.1,3.05-.23,6.39-9.68,12.93-12.54,18.23-7.98,40.08-.83,59.69-5.56,10.15-2.45,34.82-14.34,37.02-25.35,2.15-10.79.07-16.58,7.92-26.62,13.46-17.24,29.55-13.06,45.73-21.44,9.48-4.91,13.05-13.81,24.89-15.41,4.96-.67,11.58,2.03,12.43-4.93-5.73-4.14-12.58-5.43-11.1-14.37-5.63-.06-9.93,2.98-15.79,1.87-1.44-.27-9.22-5.7-9.69-6.67-.55-1.12.58-2.99.15-4.8-.85-3.56-3.61-6.79-4.22-9.3s.02-5.01-.83-7.8c-1.33-4.39-6.6-5.97-7.09-12.15-.24-2.95,1.05-5.33.95-7.6-.09-1.93-1.57-3.86-1.81-5.92-.63-5.52,7.62-24.87,6.2-27.25-1.52-2.55-6.79,3.05-9.84,3.61-12.58,2.33-31.09-10.73-44.13-12.04-3.6-1.73-10.77-10.6-4.4-12.48,7.39-2.19,13.73,2.51,20.43-6.44,7.53-10.05-3.15-9.39-10.24-12.77-4.95-2.36-15.5-10-19.16-13.94-2.92-3.15-3.35-7.62,1.12-9.3,3.38,1.17,7.98.84,11.04,1.46,4.15.84,6.58,4.22,11.49,2.42-.14-3.62-3.29-25.29-.34-25.96,3.21-.73,13.32,5.08,17.37,6.53,23.48,8.47,38.64,8.67,63.16,5.98,1.46-.16,3.07.75,4.38.49,2.65-.53,5.49-4.37,4.67-7.18-4.86-.59-13.12-.98-14.39-6.72,23.6,1.18,47.51-9.81,70.82-4.13,18.52,4.51,43.48,23.89,32.29,45.32-1.96,3.75-9.12,11.44-13.4,11.63-10.94.49-28.7-19.96-41.51-20.95-10.86-.84,2.16,5.95,4.07,7.48,3.31,2.65,14.52,14.82,11.87,19.02-.56.89-17.72,7.98-19.43,7.81-6.05-.61-15.74-8.77-22.11-10.6-17.3-4.96-6.97,8.91-6.36,16.01.21,2.45-.89,5.44-.69,6.49.35,1.83,7.17,3.43,3.35,7.96-4.08,4.84-8.71-.06-13.1-1.19-2.95-.76-15.57-3.13-18.01-3.08-1.2.02-2.77,1.25-3.13,2.18-.61,1.58,2.09,2.18,3.15,2.56,2.52.89,5.17.98,7.66,1.96,9.64,3.8,27.04,15.07,28.43,26.25.85,6.8-2.03,16.96-1.87,23.86.1,4.41,4.05,19.61,6.76,23.06,7.4,9.44,19.81,1.21,21.02,16.44,1.06,13.22-10.35,18.26-21.63,19.42-4.19.43-9.27-.53-13.11.33-4.83,1.08-8.16,9.58-11.94,12.73,5.87,17.92,19.74,13.62,34.06,9.38,20.4-6.03,48.45-22.04,51.81-45.09,2.04-13.96-8.55-13.95-8.48-20.9.04-3.74,3.51-4.53,5.82-6.69-6.81-9.69-28.16-13.07-24.73-27.63.57-2.43,2.87-3.66,3.71-5.87.92-2.42.47-5.56,1.35-7.29s3.5-1.75,4.81-2.86c13.8-11.78,29.04-17.52,43.61-27.4,4.65-3.16,9.85-8.64,14.55-12.31,7.89-6.17,12.21-6.44,17.95-15.64,6.72-10.76,9.97-23.26,13.46-35.34l-9.02-2.31c-.53-16.18-6.54-35.27-15.56-48.72-14.3-21.31-23.05-27.11-18.17-56.11,2.23-13.21,10.9-21.01,10.27-34.34-16.08,2.89-28.54,19.21-35.23,33.38-4.44,9.4-5.65,21.02-9.83,29.51-2.38,4.84-3.91,5.03-8.4,2.54-25.9-14.36-42.96-28.92-73.45-34.01-3.64-.61-7.72-3.3-11.03-1.91-1.08.45-1.56-.13-1.09,1.54.74,2.66,5.59,7.71,7.08,11.17,1.69,3.92,2.84,8.16,2.39,12.47-4.7-1.37-9.91-1.22-14.62-2.16-2.55-.51-7.31-3.17-8.87-3.21-2.03-.04-4.76,2.82-7.22.12-2.17-2.39.13-4.32.02-6.74-.09-1.94-1.06-10.44-2.41-11.02-3.01-1.29-3.02,3.37-4.29,5.3-3.46,5.26-10.08,9.05-16.33,10.04Z"/>
      <path class="cls-1" d="M759.93,119.18c-4.47,5.09-1.62,13.21-6.62,14.06s-5.87-2.7-7.61-6.73c-6.64-15.32-4.73-44.72,10.88-54.32,9.97-6.13,16.46-2.89,26.44-4.26,8.99-1.23,14.01-7.44,26.03-6.66,18.26,1.19,34.83,25.78,17.63,39.76-5.41,4.4-13.32,4.76-17.05,10.78-1.55,2.5-1.57,7.47-5.57,7.81s-7.43-8.11-11.58-10.13c-9.4-4.57-26.08,2.32-32.56,9.71ZM805.6,116.88c.22-.18.76-3.78,1.78-5.43,5.13-8.27,12.76-7.19,18.91-12.75,13.44-12.14-.52-33.11-15.6-35.24-12.19-1.72-16.65,4.67-25.89,6.23-7.09,1.2-13.75-.61-21.38,1.65-22.05,6.52-23.2,43.02-13.3,59.85,6.68,1.35,3.93-4.41,5.12-8.55,1.15-3.98,10.78-11.36,14.61-13.22,5.6-2.72,16.53-4.44,22.43-2.62,4.06,1.25,10.18,12.7,13.32,10.07Z"/>
      <path class="cls-1" d="M948.64,257.97c1.79,8.07-20.02,37.54-19.16,41.67.17.8,2.1,2.02,2.84,1.49,2.16-3.71,3.24-10.73,8.64-9.59,2.14,8.06-.6,15.96.96,23.98-2.55.44-3.5-.48-3.86-2.86l-5.18,1.89c-2.29-.65-1.41-6.56-3.81-5.65-1.92.72-6.22,4.55-6.86,6.58-1.26,3.96.75,6.37.35,8.97-.36,2.38-4.18,5.01-3.76,8.25-14.44-.57-3.21-8.92-1.84-16.2-3.06,1.52-6.6-.12-8.91.18-1.91.24-7.3,5.3-7.41.35-.07-3.33,8.28-10.64,10.09-13.96,2.82-.7,1.98,5.33,3.89,5.74l3.01-1.25c4.57-7.66,9.55-15.07,14.26-22.66,5.01-8.07,9.31-16.62,14.35-25.03.73-1.22-.19-2.43,2.38-1.89ZM939.04,294.42c-3.88,3.06-5.63,13.72-11.37,6.02l.83-6.98c-2.91,4.36-8.6,18.88-14.69,17.14l-3.07-3.71-7.19,9.59c1.77-2.05,14.09-2.2,14.94-1.01,2.32,3.24-3.83,10.07-5.11,13.01,3.84,5.57,3.8-.08,6.25-3.12,1.61-6.29-2.28-9.33,4.05-15.13,4.17-3.82,8.46-5.65,9.63,1.45,2.4-.26,3.24-2.64,5.74-.95-.43-5.7,2.35-10.74,0-16.31Z"/>
      <path class="cls-1" d="M927.55,205.2l4.79-1.91c-5.85,21.3-14.12,41.93-22.55,62.33-2.22-1.51-.82-1.74-.45-3.3,1.69-7.32,4.09-16.32,6.21-23.54,1.19-4.05,2.35-8.95,5.27-12l-3.88-.9-.88-2.81,14.29-59.68,1.54-2.33c3.05,1.34,6.89,3.24,6.27,7.16l-10.6,36.98ZM925.73,208.02c-2.74-2.9,9.12-34.32,10.44-39.87.46-2.59-1.63-2.98-3.36-4.2-1.63,6.94-15.82,57.98-13.79,60.32l4.67,1.07,4.81-17.27-2.77-.06ZM919.85,234.93c.13-.14,1.11-3.5.96-3.82-1.39-.27-1.65,2.37-1.9,3.82.31-.05.82.13.94,0Z"/>
      <path class="cls-1" d="M974.33,234.23c5.73-.79,13.39.89,17.98,4.54,3.66,2.92,8.9,11.55,7.75,16.31-1.75,7.26-18.13,14.32-23.11,20.13-2.34-1.67-.66-1.55-.48-2.35,1.33-5.75,2.85-10.34,5.57-15.57,1.49-2.86,3.78-3.5,4.08-7.5s-2.97-10.45-7.08-10.91c-3.2.85-9.54,17.03-11.67,21.02s-5.86,11.44-8.29,14.73c-2.17,2.93-4.81,1.39-5.49-1.63,5.25-9.72,7.45-21.17,12.16-31.04,2.34-4.91,2.59-6.91,8.58-7.73ZM978.4,235.9c-2.71.53-6.82.35-8.54,2.48-2.76,3.43-10.67,25.85-12.62,31.52-.49,1.42-1.02,2.82-.9,4.36l17.46-32.93,4.6-5.43ZM979.36,269.47l15.82-10.55c7.46-7.99-3.97-22.15-12.95-21.58,14.14,12.88-.23,18.8-2.88,32.14Z"/>
      <path class="cls-1" d="M878.59,207.12c-2.05,15.76-9.81,29.74-15.8,44.16-4.76,11.45-7.03,24.79-16.34,33.53-2.57-1.76-.99-5.42-.21-7.87,4.92-15.47,12.6-31.28,19.09-46.15.84-1.92,8.87-28.16,13.26-23.67ZM848.83,280.02l20.9-49.62,5.97-19.44-18.94,43.89c-1.47,7.95-5.74,14.85-8.44,22.27-.33.9-1.26,3.12.51,2.91Z"/>
      <path class="cls-1" d="M1078.06,55.67c2.43,3.81-12.35,27.37-14.27,32.48l-1.92-.49c-.05-.85.21-1.65.42-2.46,1.29-5.04,11.07-24.69,10.79-27.29-.21-2.01-4.49-3.55-5.95-1.44-.73,1.05-2.46,12.44-3.55,15.64-1.35,3.97-4.84,11.48-6.99,15.11-.73,1.23.18,2.42-2.38,1.89-1.71-9.05,5.44-17.87,6.46-25.67.68-5.19-2.77-11.34,2.85-14.47,5.39-1.6,9.58,5.57,14.53,6.7ZM1069.56,53.61c-9.61-8.8-6.63,5.48-6.71,11.52l2.42-9.55,4.28-1.96ZM1075.31,61.28c.13-.14,1.11-3.5.96-3.82-1.39-.27-1.65,2.37-1.9,3.82.31-.05.82.13.94,0ZM1062.11,65.98l-4.26,11.18,1.33.51,4.26-11.18-1.33-.51Z"/>
      <path class="cls-1" d="M872.84,288.66c-.79-.85,6.23-19.21,7.18-22.07,3.17-9.53,6.2-16.72,9.56-25.93s4.29-21.65,12.03-28.74c.11,4.25-1.47,8.26-2.61,12.25-4.86,16.98-12.52,41.2-19.68,57.07-1.27,2.82-2.77,7.13-6.48,7.42ZM884.34,261.79l2.88-9.58c-1.46.94-3.17,4.86-3.63,6.44-.26.89-.93,3.4.74,3.14Z"/>
      <path class="cls-1" d="M972.39,162.28c3.72,3.79-4.81,12.12-7.44,15.6-4.53,5.98-6,8.97-8.17,16.74-.91,3.27-.68,8.84-1.91,11.52-.97,2.13-4.81,3.07-6.12,5.4-2.25,4,.64,10.45-5.85,9.02-1.09-7.97,4.17-14.21,6.75-21.56,1.65-4.69,3.34-16.73,6.7-19.21,1.77-1.31,4.29-1.09,5.72-2.89.04-2.14-8.46.09-6.58-5.62.85-2.58,13.07-5.27,13.45-10.12.59-.41,2.89.55,3.45,1.12ZM957.28,173.53l6.72,1.51,7.65-9.67c-.02-1.53-1.1-1.22-2.36-.47-3.35,2-7.62,4.44-10.78,6.48-.94.61-1.71-.1-1.24,2.15ZM959.2,181.22c-2.09-.35-2.69,1.33-3.35,2.87-2.89,6.68-3.54,16.95-7.19,23.98,6.42-1.82,4.69-8.8,6.22-14.4,1.16-4.25,3.09-8.25,4.32-12.46Z"/>
      <path class="cls-1" d="M1112.74,115.98c.21,1.68-.05,3.17-.47,4.8-1.57,6.16-18.96,32.22-23.68,38.68-2.12,2.9-8.75,11.45-11.98,11.91-3.01.43-4.24-1.85-2.71-4.53,13.19-12.5,20.71-30.11,31.73-44.07.79-1,5.98-8.1,7.11-6.79ZM1075.32,168.73c4.44-.17,8.39-6.26,10.95-9.67,6.12-8.16,12.94-19.55,18.61-28.4,1.48-2.3,3.52-5.29,4.01-7.97-12.06,14.68-20.14,32.38-33.58,46.04Z"/>
      <path class="cls-1" d="M922.73,183.14c1.13,1.24-6.15,28.36-7.65,32.16-1.18,3-3.27,9.49-6.74,10.05-1.08-1.14,8.16-25.65,8.64-30.23.23-2.17-.23-2.49-1.19-.22-2.52,5.95-5.82,23.02-10.31,26.16-1.36.95-2.17.85-1.95-.97.82-6.69,7.34-23.4,11.12-29.19.69-1.06,6.69-9.27,8.07-7.75ZM919.85,190.8v-1.91s-1.91,1.44-1.91,1.44l1.91.47Z"/>
      <path class="cls-1" d="M1119.47,128.45c1.11,1.07,8.51-6.19,6.5-.69-1.81,4.96-18.35,25.59-22.78,29.99-1.88,1.87-14.61,12.53-16.35,10.98l10.58-14.84,18.73-20.63c-1.68-4.01-1.68-5.68,1.87-8.63l1.45,3.82ZM1121.37,130.37h-3.83s.54,3.8.54,3.8l-23.56,27.86c4.08-3.62,8.4-7.39,12-11.5s10.36-12.06,13.34-16.4c.8-1.16,1.78-2.19,1.51-3.76Z"/>
      <path class="cls-1" d="M860.12,341.66c1.77,2.58,1.28,4.25.09,6.81-3.06,6.57-20.14,26.55-25.79,32.74-1.18,1.3-5.23,5.81-6.42,6.13-4.27,1.13-6.26-1.57-4.54-5.58,1.22-2.84,14.83-20.82,17.73-24.48,4.36-5.52,9.92-10.25,14.11-15.91l4.82.29ZM857.02,343.35c-12.52,11.52-20.97,26.28-31.69,39.32-.29,6.23,4.78.21,6.74-1.9,6.74-7.25,16.12-18.9,21.98-26.96,1.9-2.61,3.64-5.41,5.25-8.21l-2.27-2.25Z"/>
      <path class="cls-1" d="M835.71,342.66c-6.26,10.3-13.87,19.14-22.37,28.99-4,4.64-10.05,8.84-16.31,9.11-.24-2.12,2.79-3.41,4.35-4.76,11.4-9.84,22.41-22.62,32.8-33.95.43-.47.13-1.78.48-2.25.75-.99,3.37-1.46,3.63.2.3,1.95-2.08,1.83-2.58,2.66Z"/>
      <path class="cls-1" d="M822.94,333.74h3.85s-.89,4.41-.89,4.41l-1.7,1.22c-8.06-3.13-8.24,7.26-12.78,12.13-1.83,1.96-8.9,6.66-6.88,1.78l22.74-35.81c.78-1.56,2.07-.39,2.32.54,1.29,4.79-5.09,11.3-6.66,15.74ZM823.89,335.69l-3.34-2.9-2.4,3.83c2.46-.86,3.63-.34,5.75.97v-1.9Z"/>
      <path class="cls-1" d="M1213.28,147.41c-1.67,1.79-5.28.8-6.44-1.35,2.13-5.28,4.6-10.88,3.37-16.72l-9.25-2.46c-.59-2.86,8.67-17.47,10.16-21.46,6.84,2.61,3.4,9,3.3,13.87-.11,5.43,1.6,25.17-1.15,28.11ZM1211.58,127.49c-.05-4.79,1.66-10.36,1.85-15,.07-1.84.48-2.93-1.36-4.17l-9.09,16.77c2.1,2.59,5.82.59,8.6,2.39ZM1208.71,145.71l3.69-1.58.14-7.04c-1.73.1-.77,3.19-1.37,4.85-.56,1.51-1.92,2.37-2.45,3.77Z"/>
      <path class="cls-1" d="M1175.11,101.58c-2.16.41-1.52-.11-2.13-1.21-1.53-2.78-5.02-13.47-4.39-16.31.75-3.36,15.07-21.91,18.08-23.27,3.45-1.56,8.08,2.78,6.5,6.51l-18.07,34.29ZM1188.06,62.5c-2.15.17-16.47,18.95-17.33,21.79-.99,3.29,2.14,9.39,3.92,12.48l16.39-29.71c1.23-2.62-.64-3.85-2.97-4.56Z"/>
      <path class="cls-1" d="M900.66,251.25c-1.91,7.3-3.16,14.81-5.28,22.06-1.18,4.03-5.51,18.81-8.38,20.4-1.1.61-2.36.81-3.61.7l14.35-40.81,2.92-2.35Z"/>
      <path class="cls-1" d="M1150.17,89.12l-29.73,34.53c5.22-15.44,10.69-32.87,29.73-34.53ZM1127.15,113.1c5.68-5.6,11.16-11.65,16.31-17.74.91-1.08,2.32-1.57,1.91-3.36-9.65,3.53-16.01,11.07-18.21,21.11Z"/>
      <path class="cls-1" d="M926.58,285.78l5.29-16.29,12.45-26.87c2.12,1.78,1.71,5.66,1.46,8.15-.8,7.97-11.8,24.72-16.28,32.65-.74,1.31-.8,2.79-2.91,2.35ZM937.12,266.59c2.55-5.6,6.17-10.9,6.72-17.26l-7.23,14.35.51,2.9Z"/>
      <path class="cls-1" d="M920.81,253.17c.88,1-5.85,19.35-6.95,22.3-2.19,5.85-5.73,16.01-8.64,21.1-.44.76-2,3.1-2.62,2.64-3.09-9.1,4.94-18.79,8.79-27.17,2.3-5.01,4.05-12.13,6.51-16.52.74-1.33.81-2.77,2.92-2.35ZM905.6,287.34l-2.44,5.52,1.33.59,2.44-5.52-1.33-.59Z"/>
      <path class="cls-1" d="M1148.26,110.21c-1.97-2.05,8.62-10.63,8.65-13.42,5.02,1.34,6.23,10.2,5.66,14.78-.48,3.83-5.22,16.11-9.25,16.71-11.69,1.76,2.7-13.41,4.34-16.64-2.29-4.08-5.84-1.72-9.39-1.43ZM1158.8,100.63c-1.72-1.27-6.05,5.39-6.71,6.7,4.44-.49,6.05.7,8.63,3.85l-1.92-10.55ZM1154.74,125.31c1.75-1.82,4.21-9.42,5.02-12.21l-8.55,11.13,1.35,2.27c.54-.68,1.66-.66,2.17-1.19Z"/>
      <path class="cls-1" d="M847.88,335.67c1.76,6-3.23,7.5-5.4,10.89-4.81,7.52-9.34,15.09-14.75,22.2-.62.81-4.83,5.35-5.75,4.31-.92-5.35,4.43-7.47,6.16-10.62.91-1.65.71-3.69,2.02-5.66,1.78-2.68,4.33-2.38,5.31-3.57,1.05-1.26,1.34-4.49,2.39-6.01,1.12-1.62,3.07-1.96,4.16-3.52,1.66-2.4,1.45-7.99,5.86-8.04Z"/>
      <path class="cls-1" d="M872.82,271.39l-2.85-1.43c5.69-11.57,8.44-25.33,11.5-37.9l4.69,1.58c-1.76,13.19-8.41,25.49-13.35,37.75ZM884.34,235.89v-1.91h-.94v1.91h.94ZM882.42,242.6l.96-5.74h-.94s-.88,4.42-.88,4.42l-.08,1.32h.94ZM881.46,245.48v-1.91h-.94v1.91h.94ZM880.5,248.36v-1.91h-.94v1.91h.94Z"/>
      <path class="cls-1" d="M968.8,298.26c-3.03.8-2.07-2.78-2.87-4.17-4.24-4.26-7.75,14.35-10.55,10.38-1.64-4.25.43-9.83,2.45-13.83,1.52-2.99,9.33-13.58,12.44-13.47,7.78,2.83-3.2,14.31-1.47,21.08ZM967.84,291.55l3.85-11.02c-1.1-1.53-1.65-1.57-3.15-.51-1.7,1.2-8.05,9.98-9.16,12.17s-2.11,4.49-2.08,7.02c2.5-1.26,2.41-6.37,4.48-7.74,2.45-1.62,5.74.37,6.06.08Z"/>
      <path class="cls-1" d="M1138.66,69.94c1.33.98-19.98,22.99-21.66,24.88-1.85,2.1-.31,4.77-4.25,3.88-.37-.35,2.51-6.9,3.01-8.01,4.56-10.16,9.44-22.99,22.9-20.75ZM1120.43,87.19l6.24-5.74,7.17-9.61c-8.11.85-10.84,8.58-13.42,15.35Z"/>
      <path class="cls-1" d="M1095.48,396.1c.61-8.86,11.79-15.46,10.51-24.38-.37-2.59-6.83-12.47.34-9.97,8.48,2.96,1.2,20.67-2.4,26.03-.71,1.06-6.99,9.91-8.45,8.33ZM1106.98,367.32c.26-1.71-.06-3.36-1.9-3.83-.39,1.25,1.44,4.82,1.9,3.83Z"/>
      <path class="cls-1" d="M838.3,209.03c0-4.62,1.94-8.94,3.67-13.11,2.95-7.14,7.7-17.41,11.22-24.28.57-1.11.88-2.66,2.37-2.9-1.89,11.74-7.5,28.16-14.2,38.08-.83,1.23-1.09,2.62-3.06,2.21Z"/>
      <path class="cls-1" d="M1113.7,189.84l-5.76.98c-1.18,3.96,6.61,6.01,4.35,9.59-1.05,1.67-7.82,4.59-9.69,2.99-2.39-2.05-3.81-16.98-3.08-20.52.32-1.57,3.11-7.6,5.57-6.01l8.61,12.98ZM1109.87,188.88l-6.7-9.58c-4.33,7.73-.19,14.24-.01,22.07,2.75.24,5.23.14,6.67-2.52l-4.62-7.43,4.67-2.54Z"/>
      <path class="cls-1" d="M1194.31,134.21c2.03,7.8-4.2,14.39-3.89,21.57.18,4.02,4.56,6.29,3.89,8.62-5.32,5.22-8.06-4.52-8.52-8.71-.72-6.55,1.35-19.19,8.52-21.48ZM1188.55,155.3c-.85-6.41,4.28-11.17,3.84-17.26-1.39.2-2.2,3.32-2.64,4.54-.74,2.05-1.54,4.61-1.9,6.74-.2,1.22-1.21,5.75.7,5.98ZM1192.4,163.93l-1.91-1.91v1.91s1.91,0,1.91,0Z"/>
      <path class="cls-1" d="M1157.85,138.04c-.65.87-.86,1.8-.96,1.92-3.64,4.49-9.62,10.06-15.56,10.86-1.24.17-1.35,1.15-2.65-.78,3-3.33,10.97-16.19,14.99-16.59,2.74-.27,4.29,1.89,4.17,4.59ZM1155.93,136.13c-3.55-2.65-10.71,9.07-12.47,11.49,3.48,1.26,13.25-10.92,12.47-11.49Z"/>
      <path class="cls-1" d="M1157.85,138.04c3.59-4.78,6.1-12.68,12.47-13.43-2.8,5.88,2.59,9.97,2.94,14.88.78,10.8-11.64,15.74-19.29,8.43-.62-3.36,1.64-4.95,2.91-7.96.15-.36.89-.41.96-1.92ZM1167.44,128.45l-11.43,16.92c3.12,6.91,13.09,4.29,14.84-2.52,1.48-5.73-3.38-8.72-3.41-14.41Z"/>
      <path class="cls-1" d="M857.48,277.15c3.37,5.34-10.93,33.3-13.91,33.55-2.31.2-.49-2.55-.31-3.16,2.04-7.03,8.32-22.06,11.82-28.53.73-1.34-.08-2.36,2.4-1.87Z"/>
      <path class="cls-1" d="M845.01,260.83c-.46-5.65,1.98-10.83,3.65-16.01.58-1.81,2.37-3.27,2.83-4.85,1.36-4.69-.05-10.8,5.99-13.67,1.5,5.94-2.41,10.3-3.79,14.91-.85,2.83-.95,5.83-1.91,8.64-.31.91-4.75,13.35-6.76,10.98Z"/>
      <path class="cls-1" d="M1094.51,78.57c-1.33,9.85-7.66,17.88-12.95,25.88-1.95-1.75-8-8.06-6.77-10.51.42-.84,6.6-7.58,7.76-8.63,1.54-1.4,10.49-8.17,11.96-6.74ZM1091.63,81.44c-.59-.73-13.4,11.29-13.95,12.5-1.18,2.61,1.5,4.76,2.93,6.69,1.32.33,1.66-.81,2.24-1.59,1.58-2.13,9.9-16.23,8.78-17.6Z"/>
      <path class="cls-1" d="M1094.23,43.26c3.94-1.17,7.74.51,11.37.79,3.52.27,8.96-2.6,9.59,3.9l-6.78,7.58-2.36-1.51-.5-5.18-6.71,4.78c-1.21-2.7-12.48-8.03-4.62-10.36ZM1112.74,45.95c-2.49,1.17-19.18-2.84-19.17.47,1.63,2.34,5.97,1.02,5.76,4.31,4.16-3.74,7.85-5.95,11.02-.01l2.4-4.77Z"/>
      <path class="cls-1" d="M1041.97,52.9c2.56-2.53,6.87.2,7.44-.25-2.95-3.57-4.31-7.02-.46-10.55l7.1,5.37c-2.53,4.16-2.83,9.93-5.15,13.87-6.24,10.63-12.09-5.33-8.94-8.45ZM1052.28,51.7l.54-3.81-4.36-1.94c-.96.93,3.13,6.35,3.82,5.75ZM1051.33,54.59l-6.12-.74-2.05,1.66c1.44,10.23,6.34,7.24,8.17-.92Z"/>
      <path class="cls-1" d="M890.11,197.53c2.01,2.3-8.39,25.64-10.31,29.54-.63,1.29.62,2.65-2.16,2.11.13-8.85,4.44-22.08,9.41-29.44.83-1.23,1.09-2.62,3.06-2.21Z"/>
      <path class="cls-1" d="M876.67,151.48c-.53,6.58-2.97,13.48-6.22,19.2-1.97,3.47-4.93,8.51-9.13,9.57-.78-.86,5.95-16.9,7.17-19.2.6-1.12,6.56-11.38,8.17-9.57ZM866.13,172.58c3.83-3.04,5.43-8.87,6.7-13.43-3.69,3.18-5.1,8.99-6.7,13.43Z"/>
      <path class="cls-1" d="M820.05,375.97c-2.95,13.02-17.98,13.24-27.82,18.22-1.22-1.17,6.25-7.65,7.35-8.47l20.47-9.75ZM814.3,381.73c-2.64.63-5.54,1.88-8.02,3-1.85.84-5.24,2.11-6.36,3.7,5.09-.76,11.05-2.54,14.39-6.7Z"/>
      <path class="cls-1" d="M1059.96,375c-4.47-1.58-8.33-4.31-12.92-5.78-1.95-.62-12.05-2.25-12.01-3.33,3.65-4.93,22.07-4.71,25.03-1.06,2.25,2.78-.71,6.9-.1,10.17ZM1058.04,371.17c4.16-9.07-10.75-6.22-16.3-6.71.3,1.82,2.03,1.56,3.24,2.02,4.3,1.64,8.77,3.04,13.06,4.68Z"/>
      <path class="cls-1" d="M1315.23,298.24c-10.38-.82-20.15,3.29-29.97,5.07-6.78,1.23-1.62-2.8,1.48-4.29,7.01-3.35,22.49-6.62,28.49-.79Z"/>
      <path class="cls-1" d="M869.96,183.13c-1.94-2.21,11.32-23.69,13.91-26.84,1.53,1.09,1.37,1.43,1.22,3.09-.27,2.95-2.65,9.5-4.06,12.28-.76,1.51-9.4,13.37-11.07,11.47ZM879.88,165.77l-5.71,10.32,1.5.83,5.71-10.32-1.5-.83Z"/>
      <path class="cls-1" d="M1094.51,118.86c.67.83-.64,3.16-1.11,4.15-1.61,3.38-10.85,22.63-13.75,22.69-4.57-7.48,1.4-16.54,7.19-21.57l7.68-5.26ZM1080.13,141.88c4.12-4.08,7.41-10.61,8.62-16.31-4.97,3.65-9.4,9.77-8.62,16.31Z"/>
      <path class="cls-1" d="M1052.28,182.18c.88,1.04-2.44,25.73-3.36,26.86-1.34,1.65-4.16.78-5.31-.65-1.18-4.86,2.67-19.7,5.61-24.01.84-1.23,1.08-2.62,3.06-2.21ZM1047.48,208.07l1.92-18.22c-1.49.49-1.9,4.41-2.23,5.91-.72,3.2-3.11,10.61.31,12.31Z"/>
      <path class="cls-1" d="M850.76,390.36c-1.99,11.1-15.12,7.02-18.22-.96,6.54,3.69,12.75-10.17,15.81-9.59,1.86.35,1.05,1.32.52,2.4-.56,1.16-3.87,6.29-3.84,6.71l5.73,1.44ZM846.93,392.28c-2.96.23-4.07-.93-3.85-3.85l-5.74,2.89c-1.14,1.48,9.67,7.43,9.6.96Z"/>
      <path class="cls-1" d="M819.09,288.66c.45,4.86-3.96,25-11.48,21.62-4.91-2.21-5.55-14.33-.48-14.96,1.75-.22,4.06,1.36,5.26.61,1.54-.97,2.82-7.74,6.7-7.26ZM806.66,297.31c-1.69,4.2-1.64,9.81,3.22,11.45,2.57-.45,6.62-11.5,6.33-14.34-1.83.26-1.23,3.08-3.55,3.72-2.06.57-3.97-1.08-6-.82Z"/>
      <path class="cls-1" d="M1199.11,103.51c-.63,3.03-2.98,4.79-4.11,7.87-2.85,7.77,1.34,16.68-11.26,13.74-1.57-1.14-.29-1.54.2-2.72,1.08-2.63,11.27-22.49,15.18-18.88ZM1191.44,122.7l.95-10.56c-1.91,1.6-5.09,7.01-5.73,9.14-.74,2.5,3.42,1.12,4.78,1.42Z"/>
      <path class="cls-1" d="M943.6,151.71c3,2.95-2.17,10.73-7.01,7.5-2.03-1.35-8.03-14.1-8.14-16.89-.43-10.95,6.37,2.31,8.2,4.36,2.51,2.83,5.51,3.61,6.96,5.03ZM931.38,143.8c-.04,2.63,5.86,14.71,8.03,14.33l2.41-2.53c.72-2.73-8.82-8.47-10.44-11.8Z"/>
      <path class="cls-1" d="M924.53,270.3l-2.74-.33c1.6-4,2.56-8.21,4.07-12.25,1.04-2.78,3.94-10.66,5.42-12.6,1.02-1.35,5.25-1.27,4.11,1.96-2.66,7.49-8.6,15.25-10.86,23.22Z"/>
      <path class="cls-1" d="M880.51,381.72c-.04,4.01-3.91,6.45-5.6,9.26-1.55,2.58-2.52,5.92-4.15,8.32-1.49,2.19-8.7,9.82-7.1,3.48.53-2.12,3.76-7.2,5.12-9.29.89-1.37,7.18-9.86,7.83-10.4,1.29-1.07,2.07-1.7,3.9-1.37Z"/>
      <path class="cls-1" d="M941.92,195.6c-1.92.25-1.57.18-2.16-1.19-2.96-6.94,1.73-19.17,6.48-24.69,4.63,8.02-3.35,17.64-4.33,25.89ZM941.92,188.88c.84-4.19,3.41-8.02,2.88-12.46l-3.59,9.36.71,3.1Z"/>
      <path class="cls-1" d="M1126.18,328c1.43,1.34-.1,1.74-1.42,1.91-7.34.93-14.72-1.8-22.09-.96-2.72-.21-2.55-2.5-2.4-4.79,8.88-.75,17.34,2.23,25.92,3.84Z"/>
      <path class="cls-1" d="M1149.93,213.59c-2.72,2.59-4.65-.66-7.15-1.48-2.67-.88-15.45-3.54-14.67-7.37.98-4.81,19.72,4.09,22.17,5.7,1.06.81.32,2.52-.35,3.15ZM1133.29,205.42l-.5,1.53,10.24,3.37.5-1.53-10.24-3.37ZM1148.25,210.96h-1.91v.94h1.91v-.94Z"/>
      <path class="cls-1" d="M1154.01,366.36c-1.22-3.85,3.76-2.98,3.83-6.21.05-2.45-5.06-6.38-2.88-7.7,1.82-.44,4.22-1.54,6.05-1.26,2.14.32,9.73,5.2,7.45,8.02-1.67,2.06-12.21,9.38-14.45,7.15ZM1166.48,356.79c-3.52-1.5-5.19-3.94-9.59-2.89,2.08,2.72,3.4,4.99,2.88,8.62.66.8,4.72-2.88,5.49-3.56.64-.56,1.85.05,1.22-2.17Z"/>
      <path class="cls-1" d="M1093.55,181.22c.92.9-8.46,21.86-13.42,21.1-.82-9.26,2.94-20.05,13.42-21.1ZM1089.71,185.05c-5.5,1.22-7.09,8.59-7.66,13.43,2.37-.46,8.21-12.86,7.66-13.43Z"/>
      <path class="cls-1" d="M1033.08,81.44c-2.53.29-1.51-.05-1.92-1.41-1.51-4.98-4.78-16.3-1.44-20.67,1.24-1.63,5.3-1.28,6.83-.07,4.15,3.27-3.41,17.29-3.46,22.15ZM1033.09,74.72c-.91-3.39,4.99-11.95,1.98-13.96l-3.88-.43c-.55,4.63-2.38,10.75,1.9,14.39Z"/>
      <path class="cls-1" d="M1044.6,135.16c-6.09-3.41-9.49-23.06-.47-23.12,9.23-.06,1.26,18.36.47,23.12ZM1042.7,130.36c2.78-1.79,5.6-15.32,2.35-16.3-7.71.81-3.54,11.31-2.35,16.3Z"/>
      <path class="cls-1" d="M1034.29,54.33c-1.24-1.22-.91-3.15-.23-4.55-5.44.49-12.1-2.45-11.52-8.64,1.98-.13,3.85-.1,5.79.45,5.31,1.5,5.61,7.03,12.05,7.15,1.77,3.93-2.34,9.28-6.08,5.58ZM1032.13,47.86c1.73-1.6-6.03-5.58-7.67-4.78.2,2.09,6.74,5.65,7.67,4.78ZM1038.85,49.78c-3.74-.77-3.95,1.52-1.43,3.83l1.43-3.83Z"/>
      <path class="cls-1" d="M1022.54,25.8c-1.25,8.34-20.61,6.33-23.02,1.42-.83-1.69,1.17-1.45,2.09-1.71,7.16-2.02,13.74.79,20.93.29ZM1016.78,27.72l-13.43-.96c.85,1.75,5.58,2.86,7.22,2.92,1.25.04,5.8-.3,6.2-1.96Z"/>
      <path class="cls-1" d="M1103.16,319.35c-.39-1.72.52-1.89,1.59-2.72,4.97-3.85,15.5-2.37,20.46,1.29-6.62,4.34-14.78,3.68-22.05,1.43ZM1119.46,317.45c-3.31-.79-9.35-2.66-11.51.94,2.71-.05,5.45.11,8.17,0,1.16-.04,3.57.72,3.34-.95Z"/>
      <path class="cls-1" d="M948.64,316.49c-2.53.2-1.59.11-1.88-1.46-1.49-8.05-1.22-16.45,3.32-23.48,4.4,1.9-1.22,20.87-1.44,24.94ZM949.6,303.05v-3.83h-.94v3.83h.94Z"/>
      <path class="cls-1" d="M871.87,355.82c-1.02,7.7-5.02,15.19-11.03,20.14-1.08.89-1.55,2.33-3.36,1.91l11.09-20.08,3.29-1.97Z"/>
      <path class="cls-1" d="M1119.46,68.01c.33,1.68-.45,2.77-1.12,4.15-1.08,2.26-12.19,15.26-14.23,13.11-.42-3.5.94-7.06,3.31-9.63,1.01-1.09,11.43-8.3,12.03-7.63ZM1107,81.44c1.31-.69,7.79-6.47,6.7-7.67-2.89,1.76-6.59,3.75-6.7,7.67Z"/>
      <path class="cls-1" d="M923.7,278.11c-.06-.58-1.34-1.73-.96-2.87,3.12-.31,3.18-.24,2.87,2.87-.59.15-1.51-.17-1.92,0,.72,7.35-4.67,16.83-10.55,21.11-.07-1.69-.09-3.37.22-5.05.81-4.32,6.48-14.42,10.33-16.06ZM917.93,291.53c.13-.14,1.11-3.5.96-3.82-1.39-.27-1.65,2.37-1.9,3.82.31-.05.82.13.94,0Z"/>
      <path class="cls-1" d="M1151.14,222.47c4.27-.93,8.55-1.27,12.94-.95,1.83.13,9.76.81,9.13,3.33-3.36,3.55-7.2,3.93-11.92,3.28-1.43-.2-12.1-3.54-10.15-5.66ZM1169.37,224.39l-13.43-.96c.91,1.82,5.42,2.75,7.2,2.89,2.07.15,5.41.55,6.23-1.93Z"/>
      <path class="cls-1" d="M1055.16,34.42c-6.16-2.17-12.73-.14-18.58-.33-1.66-.05-3.1-.6-2.53-2.54,4.75,1.21,5.73-2.32,8.92-4.03,6.46-3.46,11.44-.04,12.19,6.9ZM1052.29,31.54c-2.52-4.96-7.05-3.65-10.55-.47,3.66.5,6.89-.91,10.55.47Z"/>
      <path class="cls-1" d="M938.09,200.4c.76,7.49-2.49,16.46-6.46,22.78-1.09,1.74-.9,1.33-3.14,1.19,2.9-6.16,3.44-13.15,6-19.42.7-1.73,1.24-5.25,3.59-4.55Z"/>
      <path class="cls-1" d="M901.63,196.56c.39-7.83-5.77-15.32,2.4-21.08,3.47,3.26,4,7.31,3.29,11.92-.19,1.23-3.83,11.4-5.69,9.16ZM904.49,189.84c.74-3.07,3.03-10.19-1.89-10.55-1.23,3.12-1.03,5.99-.03,9.15.42,1.34-.58,1.7,1.93,1.39Z"/>
      <path class="cls-1" d="M1060.92,179.3l-1.91,30.23-1.92,1.42c.24-9-1.99-21.26,1.49-29.73.62-1.52-.12-2.36,2.34-1.92Z"/>
      <path class="cls-1" d="M1225.98,239.74c.25,1.95-1.64,3.11-2.85,4.33-1.72,1.73-11.49,10.63-12.81,11.2s-2.59.47-2.55-.66c4.2-7.79,9.49-12.47,18.21-14.87Z"/>
      <path class="cls-1" d="M1060.92,338.55c-.26,3.01-3.91,5.5-6.43,6.51-1.66.67-13.77,3.85-13.7.68,1.94-2.21,19.34-7.91,20.13-7.19Z"/>
      <path class="cls-1" d="M765.35,361.58c2.21,2.28-9.53,14.43-13.7,13.29-4.96-1.36-1.15-5.22,1.29-7l12.41-6.29ZM759.6,367.34c-1.75-.46-9.26,4.1-7.67,5.74l7.67-5.74Z"/>
      <path class="cls-1" d="M1128.1,49.78c1.51,1.41-11.8,16.44-16.31,13.43l.21-4.6c5.6-3.58,8.41-9.13,16.1-8.83ZM1124.26,52.67c-4.5.64-7.79,5.37-10.56,8.62,4.35-1.11,7.92-5.2,10.56-8.62Z"/>
      <path class="cls-1" d="M962.08,162.97c-7.21,3.42-21.11,5.98-15.33-6.21,1.22-1.01,2.62-1.48,4.21-1.41,2.25.09,12.6,5.68,11.12,7.62ZM958.24,162.01c-.8-2.67-9.81-6.43-10.61-3.2-.86,7.96,5.81,5.02,10.61,3.2Z"/>
      <path class="cls-1" d="M1130.99,148.59c-.31-3.41,12.64-16.56,13.9-16.3,1.06.22,1.65,1.57.99,2.88-1.2,2.35-12.15,15.89-14.88,13.42Z"/>
      <path class="cls-1" d="M843.08,402.83c.54,4.8-6.2,7.96-7.3,11.48-.84,2.69,1.44,4.11-.85,5.76-7.32-6.45-.26-16.93,8.15-17.24ZM835.42,410.5c1.56-.69,3.18-2.11,2.86-3.84-1.56.69-3.18,2.11-2.86,3.84Z"/>
      <path class="cls-1" d="M831.56,230.14l-1.85,8.21c-4.58.7-6.87-.52-9.19,4.26-10.49-6.59,6.06-9.85,11.04-12.47ZM828.69,233.98l-5.74,1.9,5.75.97v-2.87ZM819.11,239.73c.37.47,2.54-1.68,1.9-2.88-.37-.47-2.54,1.68-1.9,2.88Z"/>
      <path class="cls-1" d="M1140.57,41.15c-1.42,9.73-10.38,3.27-16.68,6.78-5.62-8.06,12-6.16,16.68-6.78ZM1137.7,43.07c-1.68.23-6.08-.07-6.71,1.9,2.29-.05,5.75.83,6.71-1.9ZM1127.14,44.03h-1.91s0,1.91,0,1.91l1.91-1.91Z"/>
      <path class="cls-1" d="M1055.15,134.2c.55.45,2.96,13.18,2.89,13.89-.37,3.91-6.11,4.35-7.75,1.78-3.04-4.78,1.24-18.66,4.86-15.67ZM1054.2,138.04c-2.51-.29-1.52.04-1.94,1.41-.77,2.49-2,10.96,2.41,10.1,3.06-.59-1.6-9.36-.47-11.51Z"/>
      <path class="cls-1" d="M1067.65,212.87c-.07-3.1.74-15.26,3.48-16.19,9.92-3.37,3.95,17.08-3.48,16.19ZM1074.36,198.48l-2.89.64-1.9,9.9c2.4.52,1.7-.54,2.49-1.79,1.75-2.75,2.65-5.42,2.3-8.76Z"/>
      <path class="cls-1" d="M976.31,327.83c-3.5,1.25-12.34,5.89-12.35-.27,0-12.17,15.65-13.1,12.35.27ZM965.93,328.95c4.7-1.83,11.42-1.3,7.73-8.22-1.86-.85-4.6-.75-5.91.93l-1.82,7.28Z"/>
      <path class="cls-1" d="M941.92,415.3c2.1,6.46.45,14.92-6.71,17.26-1.9-6.27.25-14.72,6.71-17.26ZM937.14,428.73c2.98-1.75,3.78-6.39,3.82-9.59-3.74,1.86-4.18,5.83-3.82,9.59Z"/>
      <path class="cls-1" d="M948.64,87.2c1.87,9.6-4.36,12.34-11.5,16.3l1.27-4.95,10.23-11.35ZM942.89,96.78c1.82.32,3.19-1.12,2.87-2.87l-2.87,2.87Z"/>
      <path class="cls-1" d="M1097.39,233.02c2.64,7.7-15.72,13.61-13.04,4.78,1.68-5.55,4.7-.7,6.67-1.09,1.47-.28,3.76-4.33,6.38-3.69ZM1090.67,238.79c-2.08-.57-3.92-1.77-4.79.94h4.79s0-.94,0-.94Z"/>
      <path class="cls-1" d="M992.67,61.17c-2.04.9-16.17-2.98-14.27-5.63l13.77-1.85c2.73.86,1.43,5.53.5,7.48ZM991.83,55.54l-7.66,1.9c3.64.67,7.98,4.35,7.66-1.9Z"/>
      <path class="cls-1" d="M959.88,329.63c-1.61,1.4-4.95,1.07-6.44-.19-4.18-3.52,3.66-12.12,8.11-11.99,3.5.89.35,10.43-1.67,12.18ZM954.41,327.99c5.51.92,6.74-4.2,6.7-8.63-3.23,1.85-7.12,4.23-6.7,8.63Z"/>
      <path class="cls-1" d="M1164.09,211.91h18.23c.47,0,2.09,1.67.5,2.41-6.43,2.06-13.55,1.31-19.7-.49l.97-1.92Z"/>
      <path class="cls-1" d="M847.88,442.16c.68,7.1-7.32,11.24-13.43,11.5,2.41-5.29,7.42-10.93,13.43-11.5ZM844.87,444.87l-5.91,4.58.98,1.26,5.91-4.58-.98-1.26Z"/>
      <path class="cls-1" d="M1210.17,216.74l1.01,1.92-3.11,4.62c-2.61.92-5.18-.84-7.54-.85-2.79-.02-4.35,3-6.19.51,3.7-5.18,10.49-4.24,15.83-6.2ZM1207.75,219.59l-3.83.97v.94s3.83,0,3.83,0v-1.91Z"/>
      <path class="cls-1" d="M993.48,33.67c1.71-.39,10.87-.82,10.81,1.24-1.92,3.16-6.48,1.62-8.61,2.88-1.12.66-1.45,3.84-3.35,3.35l-3.24-4.32c1.02-1.45,2.65-2.75,4.39-3.15ZM993.75,36.36h-1.91v.94h1.91v-.94Z"/>
      <path class="cls-1" d="M1130.03,233.01c.65-6.84,11.38-9.49,15.3-4.2-2.28,6.17-10.09,3.81-15.3,4.2ZM1142.49,228.23c-3.29-.04-7.77-.7-9.59,2.86,2.52-.28,9.77,1.29,9.59-2.86Z"/>
      <path class="cls-1" d="M898.74,328.96c3.05,2.33-6.16,15.67-8.63,13.42,1.33-1.78-.15-5.83.4-6.72.74-1.2,2.92-1.18,3.75-1.84,1.32-1.06,1.06-5.43,4.48-4.86Z"/>
      <path class="cls-1" d="M1014.86,335.67c1.3,6.26-14.38,7.44-15.34,4.3-1.77-5.76,12.42-4.21,15.34-4.3ZM1011.02,337.6c-2.77.22-7.98-1-9.59,1.9,2.77-.22,7.98,1,9.59-1.9Z"/>
      <path class="cls-1" d="M817.18,324.15c-1.38-7.82,2.29-11.02,9.12-13.4,1.71,1.38,1.26,1.03.64,2.52s-8.09,12.76-9.76,10.88ZM819.11,320.32c1.24-.32,4.48-4.98,3.82-5.76-2.14,1.11-4.25,3.1-3.82,5.76Z"/>
      <path class="cls-1" d="M951.03,331.25c1.51-.06,8.61,2.81,8.16,4.86-.77,3.48-8.52,1.35-11.53,2.01-2.75-1.97.31-6.75,3.38-6.88ZM953.45,333.76c-1.79-.1-4.22-.28-4.8,1.9,1.79.1,4.22.28,4.8-1.9Z"/>
      <path class="cls-1" d="M1011.02,54.58c1.12.99-7.17,12.69-10.55,11.5-.92-5.98,4.47-11.98,10.55-11.5ZM1003.36,62.25c.37.47,2.54-1.68,1.9-2.88-.37-.47-2.54,1.68-1.9,2.88Z"/>
      <path class="cls-1" d="M1079.07,401.79c-.7.5-3.75-.41-4.47-1.13-3.1-3.06,1.47-8.98,4.2-11.14l4.07,2.36-3.8,9.9ZM1080.11,392.28c-2.21-.56-5.9,5.83-3.34,6.7,1.96.67,3.5-5.44,3.34-6.7Z"/>
      <path class="cls-1" d="M1088.75,248.37c-1.78,6.68-5.5,10.25-12.47,7.66-2.44-2.89,9.76-9.23,12.47-7.66ZM1084.92,251.25c-1.73-.54-6.01,2.64-4.79,3.82h1.42s3.37-3.82,3.37-3.82Z"/>
      <path class="cls-1" d="M812.38,228.22l.13,3.71,3.29,1c2.25,6.06-6.03,7.48-9.69,3.94l-.3-3.18,6.57-5.47ZM814.3,235.88l-4.33-3.63-2.38,2.21c-1.05,2.51,5.77,2.06,6.71,1.41Z"/>
      <path class="cls-1" d="M827.74,439.27l6.84-10.41c2.59-1.49,6.03,3.23,3.8,6.16-1.1,1.44-9.35,5.37-10.64,4.25ZM832.53,435.43c1.85.19,3.48-1.11,4.78-2.39l-1.42-1.42-3.36,3.81Z"/>
      <path class="cls-1" d="M1066.79,160.03c-4.93-5.07.13-16.73,5.52-9.86,3.77,4.81-.55,8.85-5.52,9.86ZM1070.51,150.52c-2.31-1.75-5.99,5.97-2.38,6.71,3.05.62,4.03-5.45,2.38-6.71Z"/>
      <path class="cls-1" d="M991.83,409.54c-.67,7.75-4.28,12.07-12.47,10.54-.13-4.66,5.16-3.01,7.21-4.78s1.06-7.08,5.26-5.77Z"/>
      <path class="cls-1" d="M1054.33,170.53l.35-8.5c10.86-7.92,11.37,12.94-.35,8.5ZM1059.82,168.59c3.84-8.64-5.37-9.32-3.69.15l3.69-.15Z"/>
      <path class="cls-1" d="M1065.72,114.05c-.25,4.71,1.04,9.94-1.67,14.12-.61.95.08,1.7-2.15,1.23-.68-4.74-3.01-15.33,3.83-15.36ZM1063.8,123.65v-4.79h-.94v4.79h.94Z"/>
      <path class="cls-1" d="M1077.24,245.5c-3.13,3.53-9.45,6.67-13.5,3.24.73-8.67,7.99-6.6,13.5-3.24ZM1073.39,245.5c-5.96-3.58-10.76,4.04-3.81,2.42.7-.16,3.93-1.3,3.81-2.42Z"/>
      <path class="cls-1" d="M1047.49,156.27l-4.31,12.45-4.27-8.01,8.58-4.44ZM1044.61,160.12l-3.83,1.42,2.86,2.4.97-3.83Z"/>
      <path class="cls-1" d="M835.32,164.03c.55,2.3,1.91,4.15,1.6,6.66-.19,1.55-2.74,10.18-5.34,7.65-1.35-5.28,3.32-9.71.96-14.39l2.78.08Z"/>
      <path class="cls-1" d="M1317.15,115.98c1,3.61-2.52,3.74-3.54,5.08-.66.87-4.61,9.82-7,7.39-2.5-3.96,9.32-13.79,10.55-12.46Z"/>
      <path class="cls-1" d="M829.65,198.49c-2.89,4.91-2.83,12.64-9.59,14.38.69-2.25,5.81-17.35,9.59-14.38Z"/>
      <path class="cls-1" d="M882.43,302.1c.82,5.48-2.19,13.43-7.67,15.34-.5-.52,4.44-11.93,5.27-13.47.72-1.35-.07-2.36,2.4-1.87Z"/>
      <path class="cls-1" d="M986.06,301.15c.07,6.02-5.07,8.44-10.54,7.65.71-5.24,5.27-9.82,10.54-7.65ZM983.2,303.06c-3.04-.61-3.84,1.52-4.8,3.82,2.64.18,4.14-1.5,4.8-3.82Z"/>
      <path class="cls-1" d="M936.16,356.77c-4.69-2.98-5.43-10.27-5.74-15.34,2.58-3.01,7.43,13.42,5.74,15.34Z"/>
      <path class="cls-1" d="M1242.29,225.35c.18,6.61-6.32,7.82-10.07,11.49-3.4-3.04-.53-2.36.45-3.57,2.59-3.19,5.21-7.01,9.62-7.92Z"/>
      <path class="cls-1" d="M1275.87,240.69l4.81,10.54c-1.38,1.07-9.05-3.31-9.44-5.41-.28-1.67,3.14-6.21,4.63-5.13ZM1275.88,247.41c.64-1.2-1.54-3.34-1.9-2.88-.64,1.2,1.54,3.34,1.9,2.88Z"/>
      <path class="cls-1" d="M1080.03,386.43c-1.83,1.27-5.87-1.41-6.46-3.49,0-15.68,10.5.68,6.46,3.49ZM1078.19,384.6c1.22-5.31-4.83-6.61-2.39-1.92.33.64,1.58,1.77,2.39,1.92Z"/>
      <path class="cls-1" d="M1059.84,361.44l-7.88-.83c-2.64-4.65,5.67-4.05,7.53-7.66,2.61,2.06,1.42,5.77.35,8.48ZM1055.17,359.65c2.3.37,4.08-.45,3.82-2.87l-3.83.97v1.9Z"/>
      <path class="cls-1" d="M923.51,170.44c-.82.47-1.81.15-2.69.21-1.09-1.08,2.38-12.42,4.78-13.43,1.58,2.87.47,11.74-2.09,13.22Z"/>
      <path class="cls-1" d="M887.24,443.12c6.76-1.14,11.75,10.85,3.4,9.61-4.57-.68-3.36-6.11-3.4-9.61ZM892.98,450.79c.94-.9-1.12-4.19-2.41-4.78h-1.42c-1.23,2.63,2.07,6.49,3.83,4.78Z"/>
      <path class="cls-1" d="M925.61,422.02c1.03,4.24-2.78,11.37-7.28,7.76l-.91-4.91,8.19-2.85ZM922.73,424.89l-3.83.97v1.41c2.18,2.98,4.31.7,3.83-2.38Z"/>
      <path class="cls-1" d="M1205.82,157.23c.95,3.21-.56,12.48-5.25,11.51-4.33-.89,2.69-11.12,5.25-11.51ZM1202.94,165.86v-1.91h-.94v1.91h.94Z"/>
      <path class="cls-1" d="M790.3,377.89c.78,5.27-3.45,6.56-7.85,7.03-.81.09-3.78,1.03-3.65-.8.05-.66,10.65-7.11,11.49-6.23Z"/>
      <path class="cls-1" d="M821.01,448.88c.36,5.87-4.76,6.97-9.59,6.71-.49-4.95,5.82-6.35,9.59-6.71Z"/>
      <path class="cls-1" d="M981.28,328.96c2.91.64,6.58-1.66,8.99.07,6.71,4.81-8.55,7.86-8.99-.07ZM988.95,330.88h-3.83v.94h3.83v-.94Z"/>
      <path class="cls-1" d="M953.43,228.22c2.11,1.97,1.31,12.85-3.82,12.46-.38-.42,1.31-9.76,1.8-11.14.37-1.05.53-2.71,2.01-1.32Z"/>
      <path class="cls-1" d="M1142.49,262.75c-4.45.55-8.51-.95-11.49-4.31,2.13-4.76,13.26,2.82,11.49,4.31Z"/>
      <path class="cls-1" d="M1065.44,395.34c4.06-1.24,8.12.45,4.66,4.67-5.88,7.18-10.39-2.92-4.66-4.67ZM1069.56,397.08c-5.31-1.22-6.61,4.83-1.92,2.39.64-.33,1.77-1.58,1.92-2.39Z"/>
      <path class="cls-1" d="M938.1,236.85c-.49-.55,1.12-7.31,1.47-8.61.26-.96.11-3.83,1.87-2.89,4.06,2.17,1.37,11.23-3.34,11.5Z"/>
      <path class="cls-1" d="M1266.97,252.38c1.26-.06,1.43.41,2.17,1.26-7.6,14.61-12.96-.71-2.17-1.26ZM1265.32,257v-1.91s-1.91,1.44-1.91,1.44l1.91.47Z"/>
      <path class="cls-1" d="M970.58,344.45l.02,4.52-7.49.07.08-4.59c2.44-1.34,4.94-1.35,7.39,0ZM968.8,347.17l-1.45-1.9-2.38,1.44,3.83.47Z"/>
      <path class="cls-1" d="M1083,380.75c-.61-3.93,2.79-6.4,4.31-9.58,4.79,3.91.95,9.28-4.31,9.58Z"/>
      <path class="cls-1" d="M1047.24,212.17c.85.86,1.16,2.43.81,3.61l-3.93,3.77c-4.66-2.96-.99-11.52,3.12-7.38ZM1045.56,216.7v-2.87h-.94v2.87h.94Z"/>
      <path class="cls-1" d="M883.05,70.08c2.41-.46,4.4,3.03,5.63,4.67l-1.01,1.89-6.74-1.85c-1.28-1.59.54-4.4,2.12-4.7ZM885.31,72.81h-2.87v.94h2.87v-.94Z"/>
      <path class="cls-1" d="M1086.83,107.35c.52.57-4.97,12.58-6.71,10.54-.72-4.45,2.16-9.46,6.71-10.54Z"/>
      <path class="cls-1" d="M1203.43,106.4c3.17,3.44,1.54,8.22-1.92,10.51-2.74-1.56.65-10.46,1.92-10.51Z"/>
      <path class="cls-1" d="M878.59,232.06c-.25,1.14-3.82,12.87-5.75,10.54-.62-4.33.92-9.67,5.75-10.54Z"/>
      <path class="cls-1" d="M1318.12,115.01c-.52-2.72,2.07-8.36,5.26-7.66,1.75.38,1.17,1.2.48,2.37-.55.93-4.58,6.58-5.74,5.29Z"/>
      <path class="cls-1" d="M880.24,346.89c-5.32,6.17-6.85-2.04-.19-4.5.77-.24,1.46,3.02.19,4.5Z"/>
      <path class="cls-1" d="M830.61,444.08c-.23,3.31-3.63,5.35-6.71,4.79.23-3.31,3.63-5.35,6.71-4.79Z"/>
      <path class="cls-1" d="M1061.88,91.04c.98,2.19-2.85,7.68-4.79,5.75-1.24-1.23,2.56-6.39,4.79-5.75Z"/>
      <rect class="cls-1" x="871.34" y="320.64" width="5.78" height="3.38" transform="translate(197.31 962.6) rotate(-63.64)"/>
      <path class="cls-1" d="M1126.19,124.6c-1.32-1.2,3.86-4.4,4.78-4.79.41,2.98-1.71,5.25-4.78,4.79Z"/>
      <path class="cls-1" d="M841.16,334.71c.48,3.08-1.65,5.36-3.82,2.38v-1.41s3.82-.97,3.82-.97Z"/>
      <path class="cls-1" d="M834.45,300.18l-.97,3.83c-4.15.09-2.9-4.88.97-3.83Z"/>
      <path class="cls-1" d="M879.55,149.55h-2.87c-.36-4.8,3.23-4.8,2.87,0Z"/>
      <rect class="cls-1" x="1326.75" y="96.79" width="2.88" height="2.88" transform="translate(-.34 4.74) rotate(-.2)"/>
      <path class="cls-1" d="M974.55,347.19c-.02,3.52-2.85,3.52-2.87,0h2.87Z"/>
      <rect class="cls-1" x="1129.07" y="149.56" width="1.91" height="2.87"/>
      <path class="cls-1" d="M1090.67,99.67c1.45,1.45-2.85,4.09-2.85,1.43,0-.64,2.3-1.98,2.85-1.43Z"/>
      <rect class="cls-1" x="848.85" y="376.93" width="2.87" height="1.91"/>
      <path class="cls-1" d="M1037.89,348.14c-1.45,1.45-4.09-2.85-1.43-2.85.64,0,1.99,2.3,1.43,2.85Z"/>
      <path class="cls-1" d="M874.56,354.62c-.79.47-1.79.18-2.68.23l2.88-1.92-.96-2.86,2.86,1.43c-1.06.45-1.73,2.91-2.1,3.13Z"/>
      <polygon class="cls-1" points="857.48 382.67 855.57 382.67 855.57 381.25 857.01 379.8 857.48 382.67"/>
      <circle class="cls-1" cx="1053.27" cy="91.97" r="1.18"/>
      <path class="cls-1" d="M38.09,265.48c.66,1.02,4.72.67,5.43,1.29.23.2,1.11,3.67,2.56,5.6,2.91,3.88,20.2,14.23,19.69,16.75-3.68,4.05-8-2.4-11.82-4.48-8.79-4.79-23.87-8.34-20.26-21.92-1.28-1.63-6.63.26-8.75-5.68-.64-1.78-2.03-7.97.56-7.3.75.19,9.26,6.49,9.97,7.33,2.66,3.17,1.87,7.24,2.62,8.4ZM34.1,257.98l-7.66-3.85c.39,4.02,3.14,6.53,7.19,5.76l.48-1.91ZM41.54,268.76c-1-.83-5.03-1.18-6.46-3.12-.1,8.84,11.02,13.66,18.22,16.3-2.96-3.3-6.6-5.78-9.61-9.09-1.13-1.24-1.46-3.51-2.15-4.08Z"/>
      <path class="cls-1" d="M377.67,233.02c-1.91-2.53,5.36-12.08,7.65-13.93,3.99-3.21,8.74-3.46,12.53-6.66,3.87-3.28,10.52-15.84,13.41-17.37s6.08,2.45,4.3,6.29c-.67,1.45-9.62,10.75-11.48,12.51-2.04,1.93-25.3,20.63-26.41,19.16ZM414.12,197.53c-1.28-1.2-2.39.48-3.16,1.19-3.75,3.45-6.85,10.13-10.27,14.15,1.05,1,4.48-2.96,5.29-3.81,1.24-1.3,9.25-10.48,8.14-11.52ZM397.81,215.76c-6.87,1.93-14.18,4.95-16.3,12.46.69.76,15.31-10.62,16.3-12.46Z"/>
      <path class="cls-1" d="M328.94,414.12c5.19,5.41,27.06-5.17,33.96-5.48,4.85-.22,2.93,2.13.08,3.97-8.33,5.36-22.65,9.17-32.18,5.9-3.01-1.03-5.63-4.05-9.52-4.39-2.69-3.7.13-7.92,4.33-5.8,3,1.51,2.04,4.46,3.34,5.81ZM325.84,410.5l-3.83.47,2.41,2.39h1.42s0-2.86,0-2.86ZM357.51,412.43l-15.34,4.78,7.88-1.23,7.47-3.55Z"/>
      <path class="cls-1" d="M321.71,389.71c.5.37.69,1.56,1.22,2.09l1.46.54c5.71-5.41,12.39-2.61,9.16,5.25l-4.82-1.47c.19,3.12-5.2,3.62-6.49,5.02-2.06,2.24.69,5.38-3.81,6.24-3.93.75-9.55-.6-11.86-4.02s.8-4.38,1.75-7.01c.74-2.07-.45-3.97,1.62-6.05,2.98-2.99,8.45-2.99,11.76-.58ZM332.55,395.15l-2.53-3.76-5.46,3.62c-3.56-.31-3.81-5.92-10.5-4.46-5.48,1.2-2.46,3.72-2.86,5.92-.24,1.34-3.19,3.05-3.41,4.93.15,1.86,7.29,4.93,9.45,3.91,2.73-.46,1.76-3.49,3.33-5.35.29-.34,6.81-5.16,7.22-5.34,1.86-.83,3.02.41,4.75.52Z"/>
      <path class="cls-1" d="M374.78,235.9c.29,3.82-.32,7.66-1.72,11.22-.62,1.58-7.48,13.17-8.28,13.8-2.22,1.73-8.84-2.44-10.2-4.33-2.42-3.35-.54-8.2,3.4-9.18,2.78,1.84.34,4.2.5,6.71,4.28,3.96,11.25-13.55,13.21-16.04.91-1.15,1.1-2.61,3.09-2.18ZM358.47,256.05l4.81,3.38c2.67-5.56,7.84-10.61,8.62-16.81l-7.59,12.06-5.83,1.37ZM356.54,255.08v-3.83h-.94v3.83h.94Z"/>
      <path class="cls-1" d="M345.03,278.12l-9.59,1.9c-2.51-2.36,14.34-27.63,17.79-7.72.44,2.51,1.05,5.27-.07,7.71-.39.86-12.46,13.39-13.41,13.43s-1.38-1.47-.95-2.83c.53-1.67,6.77-12.05,6.23-12.49ZM344.08,285.78c7.78-4.96,10.45-11.37,4.19-19.13-2.64-.76-9.5,7.52-9.97,10.01-.62,3.3,3.28-.02,4.53-.27,1.68-.33,3.38-.24,5.08-.19l-3.82,9.59Z"/>
      <path class="cls-1" d="M188.61,362.54c-.88-.84-6.14,4-8.21,1.01-3.8-5.5,8.58-12.56,9.19-2.94,6.43-.91-.34-6.38,7.24-7.6,5.22-.84,8.97-.25,11.87,4.38.54,2.97-16.31,12.36-20.13,9.5l.04-4.34ZM190.54,365.4c.97.87,15.93-5.39,15.34-8.12-2.7-3.94-7.61-2.47-11.52-1.46,3.08,4.68-3.41,5.37-3.83,9.58ZM186.69,357.74c-2.67.1-5.47,1.75-4.79,4.79,2.67-.1,5.47-1.75,4.79-4.79Z"/>
      <path class="cls-1" d="M197.4,113.26c2.84-1.68,6.31-.69,9.04.72.55.74.5,1.55.43,2.41-.14,1.56-15.25,26.41-16.81,26.42-1.35-.92-1.43-1.82-1.52-3.33-.4-6.98,9.47-18.22,8.87-26.22ZM204.92,115.02l-5.71.04c-.57,7.86-6.1,14.44-7.71,22.02l13.42-22.06Z"/>
      <path class="cls-1" d="M215.48,115.98l-14.91,28.73-4.27,1.96c-1.18-1.17,8.49-19.56,10.15-21.98.8-1.17,7.47-10.3,9.04-8.71Z"/>
      <path class="cls-1" d="M299.94,378.84c-.26-3.04.33-5.96,1.22-8.84.42-1.36,5.5-12.67,5.96-13.22,6.54-7.85,24.03,15.37,3.87,7.68l-2.94,6.68-8.12,7.7ZM318.16,364.44c.58-3.94-5.31-8.03-8.64-6.27-1.49.78-6.51,12.37-6.7,14.91,4.24-2.09,4.71-6.37,5.86-10.44l9.48,1.8Z"/>
      <path class="cls-1" d="M194.37,378.85c1.54,1.64-.48,1.61-1.34,2-4.3,1.94-25.09,8.5-28.73,7.64-5.29-5.36,9.99-8.18,13.92-9.02,3.19-.69,14.07-2.83,16.16-.62ZM184.77,380.77c-5.21.14-11.08,1.89-15.94,3.71-1.22.46-2.94.21-3.24,2.02l8.43-1.64,10.76-4.1Z"/>
      <path class="cls-1" d="M116.64,276.19h20.63c1.03,0,10.37,2.51,11.13,3.32,1.78,1.89-1.09,4.36-3.44,4.45-3.88.14-22.28-3.34-25.7-5.11-1.07-.55-2.36-1.4-2.63-2.65ZM146.39,280.03c-6.79-.28-13.3-2.69-20.15-1.91l18.8,3.75,1.35-1.84Z"/>
      <path class="cls-1" d="M248.59,165.88c1.75,1.15,1.35,2.54,1.48,4.26.41,5.56-.32,11.62-.03,17.3.13,2.47,2.02,7.77,1.67,9.5-.56,2.77-4.62,3.45-6,.58-1.21-2.52.78-23.12,1.42-27.35.24-1.61-.45-3.11,1.45-4.29ZM249.06,196.56c-.07-1.85.36-6.08-1.9-6.71.05,2.29-.83,5.75,1.9,6.71Z"/>
      <path class="cls-1" d="M419.88,376.93c-1.48,4.67-.55,11.76-4.29,15.36-3.98,3.83-17.41,5.3-16.78-2.35s6.03-2.75,8.88-3.55c2.67-.74,6.28-11.5,12.19-9.47ZM401.66,387.47c-2.91,6.36,4.76,6.85,9.54,5.23,5.19-1.76,5.35-8.3,5.79-12.9-5.99,4.09-6.24,11.65-15.34,7.67Z"/>
      <path class="cls-1" d="M222.2,171.14c.14-1.02,3.65-12.47,5.75-10.07.29,5.78-1.04,10.99-1,16.83.04,5.88,3.69,11.26-4.76,13.86.62-6.48-.84-14.34,0-20.63ZM224.12,173.54v13.43l1.93-1.43-1.93-12Z"/>
      <path class="cls-1" d="M273.07,364.45l.89,5.16c-1.62,5.58-14.15-4.63-16.23-6.6,3.26-4.56,9.46-.31,12.04-.78,1.39-.25.96-3.56,4.7-3.62,6.69-.1,6.78,7.72,2.96,7.76l-4.35-1.93ZM277.86,363.48c-.8-2.01-2.6-3.25-4.79-2.86v1.9s4.79.96,4.79.96ZM271.09,364.5l-8.58-1c3.16,2.8,10.48,10.25,8.58,1Z"/>
      <path class="cls-1" d="M141.6,298.27c4.57-.42,3.68-5.34,5.72-8.2,2.38-3.33,6.6-3.03,6.67-9.64,7.76-2.15,6.36,7.44,4.39,12.07-2.18,5.12-14.24,15.12-16.79,5.77ZM144.47,300.16c2.1,1.64,10.23-5.07,11.4-7.3.77-1.48,3.42-10.97.6-10.9-1.75,1.32-1.22,3.58-2.35,5.31s-4.09,2.43-5.29,4.3c-1.54,2.41-1.39,6.3-4.36,8.58Z"/>
      <path class="cls-1" d="M174.21,268.52c-5.57.47-7.5-1.26-6.31-6.77.91-4.2,4.05-4.53,6.41-1.48.41.53,2.74,11.23,2.81,12.61.24,5.1-4.62,13.3-9.19,8.08-2.41-5.02,7.99-11.08,6.27-12.44ZM173.25,266.59c.14-2.27.57-5.98-2.86-5.75-1.17,3.31-1.86,6.17,2.86,5.75ZM169.42,280.02c4.34.44,6.06-4.05,5.75-7.67-3.06,1.64-4.76,4.45-5.75,7.67Z"/>
      <path class="cls-1" d="M364.94,403.53c-2.58,1.37-5.41,3.07-8.37,1.69-.37-.17-5.85-4.92-6.19-5.34-1.25-1.53-1.56-3.58-2.59-5.12s-3.18-.91-2.75-2.95c2.09-2.1,7.98-4.48,10.54-2.9.61.38,9.16,10.1,9.51,10.73.82,1.49.98,2.47-.16,3.89ZM354.47,390.48l-5.6.84c-1.38,1.55,7.43,12.37,10.05,12.44,10.47-2.66-3.11-8.02-4.45-13.28Z"/>
      <path class="cls-1" d="M224.12,149.56c1.76,2.04-4.37,27.56-12.47,25.89.37-2.56,2.4-4.15,3.33-6.73,2.2-6.08,2.1-16.63,9.13-19.16ZM220.36,156.15l-3.06,11.34,1.19.32,3.06-11.34-1.19-.32Z"/>
      <path class="cls-1" d="M40.63,289.8c1.24,2.11-.35,6.43-3.14,6.51-7.56-2.51-15.73-8.17-17.77-16.28l20.91,9.77ZM38.91,293.45c2.62-2.3-12.7-8.69-14.39-8.62,3.28,4.62,8.35,8.86,14.39,8.62Z"/>
      <path class="cls-1" d="M156.94,344.3c-11.72-6.44-2.22-16.98,2.41-24.92,4.63-.12-3.11,22.32-2.41,24.92ZM155.98,339.5l1.91-12.47c-2.95,2.06-7.8,12.1-1.91,12.47Z"/>
      <path class="cls-1" d="M220.76,124.63c2.32-.18-.22,5.49-.46,6.24-2.08,6.4-4.98,13.8-8.18,19.63-1.83-1.38-.61-5.04-.33-7.03.53-3.69,4.93-18.52,8.96-18.84Z"/>
      <path class="cls-1" d="M333.38,260.71c-3.72,1.14-8.37,8.29-11.92,8.8-4.2.6-11.09-5.71-6.47-8.49s18.37-10.23,18.39-.31ZM330.63,257.97c-1.86-2.36-12.57,4.87-15.34,5.26.8,1.91,3.83,4.77,6.02,4.22,1.43-1.12,10.72-7.69,9.31-9.48Z"/>
      <path class="cls-1" d="M94.33,297.53c2.22,2.15.49,6.7-3.04,6.5-1.95-.11-20.81-7.94-17.84-10.56,4.3.33,18.09,1.38,20.87,4.06ZM92.64,302.09c3.44-3.62-11.29-6.67-13.43-5.74.03,1.36,2.72,1.88,3.87,2.35,1.21.5,9.21,3.76,9.56,3.39Z"/>
      <path class="cls-1" d="M385.33,240.69c1.16,4.43,1.31,7.77-1.1,11.85-1.07,1.81-10.53,11.81-12.33,10.21.91-3.67,4.38-5.12,6.28-8.58.8-1.46,4.59-15.8,7.14-13.48ZM383.41,250.28v-2.87h-.94v2.87h.94Z"/>
      <path class="cls-1" d="M212.59,335.67c3.98,10.94-5.44,16.36-15.34,15.34-1.25-1.21,4.58-7.92,5.73-9.13,1.41-1.48,7.57-7.6,9.61-6.21ZM209.43,345.92c1.21-1.29,3.53-7.22.79-7.35-1.97-.09-10.07,9.61-9.12,10.53,2.44-.44,6.64-1.37,8.33-3.17Z"/>
      <path class="cls-1" d="M369.98,294.42c-.22,10.76-10.21,13.36-19.18,10.54-2.04-2.9,15.58-12.43,19.18-10.54ZM367.1,297.3c-1.56-1.4-11.84,3.8-12.47,6.7,4.81-.16,12.07-.58,12.47-6.7Z"/>
      <path class="cls-1" d="M375.96,305.69l.02-4.31c4.66-4.68,22.97-.74,18.54,5.56-2.02,2.87-6.74-1.34-9.08-1.53s-6.14,3.41-9.48.29ZM393.01,305.92c3.09-2.83-15.14-7.06-15.33-2.39-.13,3.15,6.45-.53,7.9-.32s6.55,3.52,7.43,2.71Z"/>
      <path class="cls-1" d="M100.94,283.94c.97-.28,14.46,2.64,15.65,3.32,4.25,2.42,2.23,10.35-5.45,7.36-1.05-.41-10.95-7.28-11.32-7.86-.86-1.34-.09-2.47,1.12-2.82ZM104.17,286.75c1.28,1.87,11.2,9.54,12.47,5.26.14-5.06-8.9-4.03-12.47-5.26Z"/>
      <path class="cls-1" d="M234.39,345.44c2.72-.83,6.72-.12,7.01,3.2.05.57-.98,9.71-1.16,10.34-1.68,5.99-11.47,3.59-12.04-1.86-.2-1.92,4.18-11.07,6.19-11.68ZM235.29,347.3c-2.66.89-8.07,13.58-.11,13.29,1.45-.09,2.75-1.21,3.14-2.56.19-.64,1.14-8.87,1.04-9.32-.36-1.6-2.68-1.87-4.07-1.4Z"/>
      <path class="cls-1" d="M193.41,331.82c-3.83-1.05-3.12,4.05-6.71,3.84l4.8-22.06c7.52,2.68-1.59,12.77,1.91,18.22Z"/>
      <path class="cls-1" d="M183.81,196.57h-2.87c1.03-3.75-5.43-4.41-5.44-8.16,0-2.81,3.39-3.52,4.18-4.6,1.35-1.86.72-5.41,4.62-6.39,5.74,5.53-1.23,12.62-.5,19.15ZM182.87,180.25c.77,4.39-5.44,6.17-4.7,8.94,2.21,8.27,9.57-6.56,4.7-8.94Z"/>
      <path class="cls-1" d="M92.64,294.41c-6.03-1.56-14.87-.76-19.91-4.51-.86-.64-1.72-.02-1.2-2.2,7.02-.31,19.57-2.62,21.1,6.71ZM87.85,291.53c-1.65-3.35-6.63-1.5-9.59-1.9l9.59,1.9Z"/>
      <path class="cls-1" d="M373.74,209.12c2.09,3.06-8.48,14.02-10.95,16.21-1.49-1.08-1.43-1.42-1.24-3.11.09-.8,4.61-12.64,5.06-13.19,1.7-2.05,5.11-.55,7.13.09ZM366.13,219.58c.59-2.96,3.57-4.57,4.85-7.17.55-1.11,1.29-1.78-.53-2.41-2.42-.84-1.89-.08-2.48,1.34-.66,1.57-1.44,3.94-2.03,5.65-.3.87-1.76,2.74.19,2.58Z"/>
      <path class="cls-1" d="M185.73,278.11c.58.63-4.71,15.66-5.26,16.31-1.23,1.48-3.7,1.24-5.34.51-3.21-2.11,4.91-12.94,7.24-14.92,1.08-.92,1.57-2.31,3.36-1.91ZM178.99,293.45l1.93-7.67-4.78,7.2,2.85.47Z"/>
      <path class="cls-1" d="M180.93,344.31c1.47,1.38-4.53,13.51-6.7,14.9s-5.6-1.65-5.72-3.83c-.28-5.42,6.88-11.89,12.42-11.07ZM178.05,347.19c-4.95.5-7.37,4.91-6.71,9.58,3.18.71,7.82-8.4,6.71-9.58Z"/>
      <path class="cls-1" d="M314.33,314.56c.51-6.76,11.06-7.62,16.51-7.98.6-.04,2.75-.85,2.66.79-.03.68-5.33,5.25-6.68,5.77-1.78.7-11.66,2.17-12.49,1.42ZM327.76,309.78c-2.6-.22-4.99-.02-7.51.67-1.7.47-2.49-.3-2.07,2.19,2.73-1.83,7.91.18,9.58-2.87Z"/>
      <path class="cls-1" d="M168.33,332.93c2.45,1.54-.64,13.58-2.7,15.74-7.61,7.97-4.32-14.71-1.35-15.74h4.05ZM162.71,348.14c3.03-2.16,5.78-10.36,3.33-13.42l-3.12,8.37-.22,5.05Z"/>
      <path class="cls-1" d="M137.75,351.98c-2.25,2.58-4.8-7.61-4.79-9.12,0-3.03,2.01-10.27,4.79-11.99v21.11Z"/>
      <path class="cls-1" d="M291.97,386.26c-.7.58-2.28.43-3.59,1.65s-2.18,4.27-3.36,5.29c-6.51,5.66-.77-10.27.9-11.56,2.43-1.89,7.05-.94,7.1,2.32-.25.77-.43,1.78-1.06,2.3ZM290.33,382.69c-2.98-.45-4.27.91-3.82,3.82.97-.66,4.18-3.67,3.82-3.82Z"/>
      <path class="cls-1" d="M220.28,309.77c.44,7.74,1.02,14.75-8.63,15.34-1.13-1.16,3.33-17.4,8.63-15.34ZM217.14,321.02c1.57-1.9,1.21-5.11,1.21-7.41-3.18,1.49-3.9,5.48-3.82,8.63.09.12,2.4-.97,2.61-1.22Z"/>
      <path class="cls-1" d="M285.42,421.89c-4.11,2.26-15.5-1.88-12.87-7.53,1.05-2.26,9.38-1.5,11.09-.52,1.88,1.08,2.29,5.98,1.78,8.05ZM282.51,415.44l-8.49-.13c1.05,5.08,13.17,8.09,8.49.13Z"/>
      <path class="cls-1" d="M202.04,203.28l-.43,7.71-5.31,12.43c-.08-6.99-.94-12.33,3.26-18.34.81-1.15.04-2.34,2.48-1.8Z"/>
      <path class="cls-1" d="M178.9,221.62c1.02.64,5.96,13.76,4.91,16.18-6.84-2.05-8.25-10.19-7.67-16.31.87.11,2.14-.26,2.76.12ZM179.03,225.97l-1.21.43,2.42,6.86,1.21-.43-2.42-6.86Z"/>
      <path class="cls-1" d="M390.14,356.78c-3.01,4.95-7.35,15.36-14.39,10.05-.52-2.44,11.14-10.94,14.39-10.05ZM383.42,362.54h-1.42s-3.37,3.82-3.37,3.82c1.73.54,6.01-2.64,4.79-3.82Z"/>
      <path class="cls-1" d="M323.92,297.3c-.77,7.77-6.78,5.81-10.56,7.33-4.29,1.73-10.44,8.75-16.3,3.67,0-8.8,14.3-3.28,16.15-4.5.41-.27,1.44-2.93,3.68-4.43,2.08-1.38,4.47-2.37,7.03-2.08ZM320.08,300.18c-1.2-.64-3.34,1.53-2.88,1.9,1.2.64,3.34-1.53,2.88-1.9ZM306.65,306.88c-.69-2.97-7.33-2.37-6.71.96l6.71-.96Z"/>
      <path class="cls-1" d="M353.67,289.62c.44,2-1.03,2.18-2.18,3.09-3.86,3.06-9.12,7.51-14.13,5.53,4.16-4.49,9.72-9.19,16.31-8.62Z"/>
      <path class="cls-1" d="M147.35,365.4c-.52-5.05.31-9.06,2.19-13.67.4-.97.42-3.44,2.11-2.63,3.43,1.65,1.19,16.43-4.3,16.29ZM150.22,360.61l.96-5.74h-.94s-.88,4.42-.88,4.42l-.08,1.32h.94Z"/>
      <path class="cls-1" d="M399.74,345.27c-.04-4.73-2.52-9.42,1.43-13.42,8.35,4.3,7.36,11.34-1.43,13.42ZM401.66,342.38c2.82-1.15,4.25-4.51,1.42-6.71l-1.42,6.71Z"/>
      <path class="cls-1" d="M393.97,369.25c-1.04,6.79-8.2,11.29-14.39,12.46-.4-1.84.94-2.29,2.01-3.26,1.68-1.52,10.92-10.56,12.38-9.2Z"/>
      <path class="cls-1" d="M376.7,77.6c2.49,2.79-10.39,10.11-13.42,8.63.71-6.27,8.31-7.46,13.42-8.63Z"/>
      <path class="cls-1" d="M224.12,384.59c-6.82.71-9.59-5.59-9.59-11.5,6.98-.19,9.57,5.37,9.59,11.5ZM221.24,381.71c.8-.87-1.37-6.63-3.83-5.75-.8.87,1.37,6.63,3.83,5.75Z"/>
      <path class="cls-1" d="M252.91,374.04c3.61-1.06,10.33,1.9,11.36,5.48,2.38,8.25-15.1,2.73-11.36-5.48ZM262.5,381.71c.67-2.76-6.44-6.98-7.67-5.75-2.32,2.33,5.74,6.58,7.67,5.75Z"/>
      <path class="cls-1" d="M58.1,299.23c.08,1.73.48,2.01-1.42,1.91-2.8-.15-15.2-1.99-13.93-6.23,1.53-5.08,12.71,4.31,15.35,4.32ZM48.5,296.35c-.14-.13-3.5-1.11-3.83-.96-.27,1.39,2.37,1.65,3.83,1.9-.05-.31.13-.81,0-.94Z"/>
      <path class="cls-1" d="M36.98,228.22c.74,3.71,1.3,7.2.97,11.04-.72,8.39-4.96,3.03-4.73-2.74.04-1.06,1.56-10.49,3.76-8.3Z"/>
      <path class="cls-1" d="M182.85,117.9l-9.31,12.23-3.16,1.19,2.88-1.92c-2.45-6.44,2.73-12.53,9.58-11.5ZM175.19,124.61c.37.47,2.54-1.68,1.9-2.88-.37-.47-2.54,1.68-1.9,2.88Z"/>
      <path class="cls-1" d="M26.42,216.71c2.48,4.54,2.93,12.55-2.86,14.38-1.36-.98-2.21-14.81,2.86-14.38ZM26.43,221.51h-1.91s0,4.79,0,4.79h.94s.97-4.79.97-4.79Z"/>
      <path class="cls-1" d="M158.73,181.07c-3.88,2.9-10.45-3.64-8.06-7.54,6.92-5.11,9.4.83,8.06,7.54ZM156.95,174.49h-4.8c-.12,2.85,1.94,4.92,4.79,4.8v-4.8Z"/>
      <path class="cls-1" d="M303.77,413.38c.27,3.9-.46,7.75-1.47,11.49-.27,1.02-.06,3.75-1.87,2.89-5.06-2.4-1.11-9.36.97-12.47.73-1.09-.25-2.49,2.37-1.91ZM300.88,422.97v-1.91h-.94v1.91h.94Z"/>
      <path class="cls-1" d="M247.14,404.74c-3.06-1.44-8.25-4.66-6.25-8.63l2.15-1.78c2.6-.72,5.55,1.19,6.91,3.34l-2.82,7.07ZM247.16,397.07c-.08-.11-2.44-.82-2.59-.83-4.59-.26-.27,6.08,1.61,4.65.16-.12,1.11-3.65.97-3.83Z"/>
      <path class="cls-1" d="M155.03,366.37c-.28-3.13.96-12.6,5.76-10.12,4.66,4.3.39,11.59-5.76,10.12ZM156.95,364.44c1.42,1.53,6.04-5.06,2.4-6.69l-2.4,6.69Z"/>
      <path class="cls-1" d="M268.26,418.19c-1.7,6.71-10.03,1.21-11.51-3.36,4.99-4.79,7.09,2.22,11.51,3.36ZM260.38,414.56l-.99.97,4.28,4.33.99-.97-4.28-4.33Z"/>
      <path class="cls-1" d="M272.93,387.62c1.88,2.94-1.61,9.46-5.15,10.39-5.26-3.88,2.01-15.3,5.15-10.39ZM268.86,388.91l-1.12,5.17,2.56.56,1.12-5.17-2.56-.56Z"/>
      <path class="cls-1" d="M130.91,310.6c-1.8,2.88-11.77-2.4-10.42-6.59l9.65,1.38c1.06.75,1.36,4.29.78,5.22ZM129.11,306.89l-3.83.47c1.03,1.48,2.06,1.67,3.83,1.44v-1.91Z"/>
      <path class="cls-1" d="M362.29,210c2.15,4.28-.47,11.7-5.74,10.55-.42-4.45.02-10.82,5.74-10.55ZM361.34,212.88h-1.9s-.96,4.79-.96,4.79c.5.65,3.43-3.45,2.86-4.79Z"/>
      <path class="cls-1" d="M151.69,315.53c5.3-1.12.01,11.16-2.88,10.54-3.66-.78.02-9.93,2.88-10.54ZM151.18,321.27v-1.91h-.94v1.91h.94Z"/>
      <path class="cls-1" d="M343.12,239.73c-.85-5.26,1.47-8.34,5.27-11.49,1.81,1.19,1.09,1.48,1,2.87-.23,4-1.62,8.48-6.28,8.61ZM345.04,235.89c.37.47,2.54-1.68,1.9-2.88-.37-.47-2.54,1.68-1.9,2.88Z"/>
      <path class="cls-1" d="M217.11,358.85c1.05-.31,2.32-.4,3.23.26,2.6,3.82-.45,7.65-3.42,10.12-1.04.03-4.61-8.98.19-10.38ZM219.32,360.62c-1.35-.27-2.16.32-2.75,1.56l.85,3.23h.94s.97-4.79.97-4.79Z"/>
      <path class="cls-1" d="M209.48,305.68c-3.4,4.07-9.01-2.98-5.39-7.3,4.98-1.8,8.62,3.42,5.39,7.3ZM207.8,300.18c-3.77,0-3.82,3.81,0,3.83v-3.83Z"/>
      <path class="cls-1" d="M371.91,361.57c-1.57-6.11,5.21-8.87,9.58-5.28-2.94,2.93-4.78,6.28-9.58,5.28ZM377.66,356.78l-3.83.97v1.9s1.42,0,1.42,0l2.41-2.86Z"/>
      <path class="cls-1" d="M364.22,233.98c.15,1.9-1.81,9.15-4.29,8.62-5.55-5.32-1.86-7.79,4.29-8.62Z"/>
      <path class="cls-1" d="M286.5,379.79c-.91-2.84,1.19-10.79,5.24-9.58,4.53,1.36-.88,10.41-5.24,9.58ZM288.43,376.92c2.01-.77,3.21-2.64,2.86-4.8-1.79.7-2.96,3.08-2.86,4.8Z"/>
      <path class="cls-1" d="M363.26,374.05c1.26,6.35-4.68,9.49-8.58,4.2-.49-2.93,6.43-4.21,8.58-4.2ZM360.38,376.93h-2.87v1.91h2.87v-1.91Z"/>
      <path class="cls-1" d="M235.57,373.03c-2.5,1.6-5.23-4.24-5.88-6.02-1.54-4.24,5.6-1.38,6.47.31,1,1.94-.04,3.8-.59,5.71ZM234.68,369.24l-1.91-1.91v1.91s1.91,0,1.91,0Z"/>
      <path class="cls-1" d="M211.64,249.33c1.46,1.25-6.53,8.02-7.67,6.71l.13-5.62,7.54-1.09Z"/>
      <path class="cls-1" d="M367.1,128.44c-.06,3.49,1.11,9.95-3.83,10.55l.87-9.98,2.96-.57Z"/>
      <path class="cls-1" d="M318.16,378.83c-.25-5.98,4.09-3.56,6.7-.47l-6.7.47Z"/>
      <path class="cls-1" d="M332.57,379.8v2.87s-5.76-.97-5.76-.97c-.79-3.4,3.78-1.48,5.76-1.9Z"/>
      <path class="cls-1" d="M327.76,294.42v2.87s-2.87,0-2.87,0c-.31-1.75,1.06-3.17,2.87-2.87Z"/>
      <path class="cls-1" d="M194.38,151.47v-2.87c3.52.02,3.52,2.85,0,2.87Z"/>
      <path class="cls-1" d="M606.05,206.16c2,2.12-6.94,4.54-8.24,4.71-11.82,1.51-27.75-.67-38.77-5.21-1.73-.71-11.03-4.75-8.66-7.17,14.02.16,23.51,12.14,38.65,9.37,3.15-.58,5.42-3.34,7.98-3.61,3.2-.34,5.89,2.01,9.04,1.92ZM556.53,200.84l-.54,1.4,6.33,2.45.54-1.4-6.33-2.45ZM601.25,207.13c-2.87-1.19-6.07-1.3-7.67,1.9l7.67-1.9Z"/>
      <path class="cls-1" d="M610.85,145.72l-2.21,3.06-43.84,21.87c-.27-2.04,1.63-3.12,2.96-4.23,4.84-4.05,39.59-23.72,43.1-20.7Z"/>
      <path class="cls-1" d="M649.23,147.63l.91,4.72-40.24,16.38c-.41-1.97.97-2.23,2.21-3.06,10.24-6.9,26.01-11.98,37.12-18.04Z"/>
      <path class="cls-1" d="M404.53,452.71c-.6-4.13,4.78-6.33,8.14-6.73,7.47-.9,22.34.93,29.78,2.89,1.25.33,2.48-.07,3.34,1.47.71,3.27-14.17,6.26-16.8,6.3-7.75.11-16.65-3.46-24.47-3.92ZM441,450.8c-10.66-.95-23.68-6.21-33.58-.48,8.47,3.04,18.25,4.28,27.24,3.24,1.87-.22,5.54-.7,6.35-2.76Z"/>
      <path class="cls-1" d="M389.18,464.23l-.43,2.92-1.17.75c-5.56.83-12.78.43-17.55,3.56-7.24,4.74-1.64,4.2-12.06,5.67-1.65.23-4.23,3.62-7.17,2.44-.34-4.18,3.4-4.19,5.28-5.75,10.21-8.48,19.29-12.72,33.11-9.59ZM383.42,465.19c-9.28.27-18.16,2.45-24.93,9.1,4.45,4.32,8.19-3.79,11.78-5.47l13.14-3.63Z"/>
      <path class="cls-1" d="M527.86,403.81c2.04,1.47.92,1.34.63,2.51-1.12,4.65-11.48,21.13-15.54,22.86-4.62,1.97-11.51-.97-15.32-3.82.04-1.52,12.11-6.09,14.31-7.74,5.33-3.98,8.17-12.27,15.91-13.82ZM525.44,407.63c-5.69,1.76-7.89,8.6-12.53,11.92-3.66,2.62-8.8,2.92-11.45,6.29,4.27.38,6.67,3.56,11.09,1.01,2.23-1.28,14.22-17.89,12.9-19.23Z"/>
      <path class="cls-1" d="M543.85,379.99c1.07-.61,3.46-.35,4.21.71,4.16,5.82-14.44,18.08-18.3,21.14-1.9-1.34-1-1.31-.74-2.62,1.53-7.7,11.32-12.57,14.83-19.23ZM534.08,395.14c1.28,1.24,10.08-7.86,11.07-9.55.75-1.27,1.89-1.95,1.39-3.88-1.74.89-13.42,12.5-12.47,13.42Z"/>
      <path class="cls-1" d="M373.82,456.55c.41,1.97-.98,2.23-2.21,3.06-6.41,4.33-16,7.08-22.73,11.33-1.78-8.27,21.51-17.28,24.94-14.39ZM366.14,459.43c-2.13.27-4.18,1.15-6.11,2.03-1.5.68-4.65,2.22-5.39,3.71l11.5-5.74Z"/>
      <path class="cls-1" d="M422.77,469.99c.44.47,12.08-3.06,11.27,2.41-.31,2.11-10.86,6.99-13.52,6.1-.88-.29-7.65-9.96-7.23-11.68,1.06-4.32,12.14-4.1,9.47,3.17ZM420.85,466.13c-1.61-.26-6.32-.21-5.75,2.39l5.82,8.11,10.48-3.79c-1.7-4.06-4.41-.46-6.47-.12-3.75.61-4.52-3.57-4.09-6.59Z"/>
      <path class="cls-1" d="M507.23,248.36c-2.91-8.35-11.72-14.28-10.57-23.97l7.65,7.21c3.15,3.97,10.05,14.47,2.92,16.76ZM508.16,243.57c-.98-4.95-4.54-10.41-8.62-13.43,1.5,4.76,5.21,9.77,8.62,13.43Z"/>
      <path class="cls-1" d="M417.01,456.55c-.4,4.4-7.34,5.93-11.04,5.83-2.37-.06-12.23-2.97-14.18-4.13-1.23-.72-1.98-.99-1.64-2.66,1.37-.58,2.85.95,3.35.95h23.51ZM412.21,458.48c-2.39.05-4.81-.11-7.2,0-1.16.05-3.57-.72-3.34.95,2.11.22,3.88.97,6.09.91.76-.02,4.6-.5,4.46-1.85Z"/>
      <path class="cls-1" d="M722.88,187.1c7.08-1.04,2.66,15.05,1,18.36-1.42,2.84-3.43,1.77-5.13-.2-3.03-3.52.15-3.62.56-6.37.57-3.87-3.78-9.55,3.56-11.79ZM722.17,204.23c-.31-2.12,4.77-15.08,1.45-15.32-5.88-.43,0,12.03-4.31,13.89l2.85,1.43Z"/>
      <path class="cls-1" d="M549.45,346.22c-.92-3.46-6.75-24.03-2.4-24.94,5.3,1.5,3.21,10.92,3.35,15.81.08,2.84,2.87,7.31-.96,9.12Z"/>
      <path class="cls-1" d="M488.03,445.99c-1.84-8.79,19.81-24.51,16.1-8.35-1.31,5.72-10.81,9.01-16.1,8.35ZM502.41,432.57c-3.75-1.46-13.5,9.34-11.5,11.5,6.23-1.3,12.64-4,11.5-11.5Z"/>
      <path class="cls-1" d="M605.09,170.66c.3,2.16.04,2.47-1.56,3.7-2.31,1.77-14.89,7.86-17.95,8.94-1.07.38-2.2,1.05-2.55-.67-.32-1.62,2.05-2.81,3.17-3.53,2.35-1.53,17.48-9.8,18.89-8.44Z"/>
      <path class="cls-1" d="M745.21,192.72c.33-7.59-10.2-11.81-6.71-20.14,2.21-1.62,8.37,9.47,8.93,11.68.74,2.92,2.14,8.39-2.21,8.45ZM741.16,176.9l-1.39.89,4.9,7.6,1.39-.89-4.9-7.6Z"/>
      <path class="cls-1" d="M642.52,189.85c.25,2.91-3.57,3.68-5.74,4.33-5.3,1.58-10.84,1.57-16.32,1.42-.47-2.21.25-1.54,1.22-2.16,5.73-3.61,14.29-3.84,20.84-3.59ZM634.84,191.77h-2.87v.94h2.87v-.94Z"/>
      <path class="cls-1" d="M564.79,383.65c.12,3.83-18,14.67-19.19,13.42s.47-2.39,1.19-3.16c4.38-4.73,11.38-9.98,18-10.26Z"/>
      <path class="cls-1" d="M529.29,195.59c-13.69-4.35-3.36-13.22,3.83-18.22,3.1,7.23-7.89,11.04-3.83,18.22ZM526.4,190.8l2.88-6.71c-.57-.66-7.94,4.92-2.88,6.71Z"/>
      <path class="cls-1" d="M503.37,463.25c-6.81,2.47-13.56,6.15-21.11,5.76-.44-2.04,1.04-2.18,2.23-3.04,4.74-3.43,14.27-8.6,18.88-2.72ZM496.65,463.27c-2.28-.12-6.46.65-7.67,2.86l7.67-2.86Z"/>
      <path class="cls-1" d="M554.24,382.67c-.07-7.5,11.33-18.78,15.62-8.34,2.9,7.05-11.3,7.89-15.62,8.34ZM567.57,377.79c.55-9.17-9.86-5.33-9.49,2l9.49-2Z"/>
      <path class="cls-1" d="M553.27,142.84l-3.43,6.63-8.06,9.67c-3.51-8.16,3.23-16.18,11.5-16.3ZM543.69,152.43c1.11-.37,5.8-4.65,4.78-5.76-2.48.88-4.88,2.83-4.78,5.76Z"/>
      <path class="cls-1" d="M525.33,304.13c3.34,6.86,8.25,12.05,1.56,19.05-3.25.1-4.69-16.29-4.31-19.17l2.76.12ZM527.35,319.35c1.44-3.16,1.05-7.39-1.9-9.58.22,2.77-1,7.97,1.9,9.58Z"/>
      <path class="cls-1" d="M513.82,197.64c1.06.86,1.24,8.83.85,10.7-.24,1.18-3.97,9.19-5.53,7.4l.96-18.23,3.72.13ZM512.08,201.3l-1.09,8.56,1.3.16,1.09-8.56-1.3-.16Z"/>
      <path class="cls-1" d="M490.91,418.17c-.51-.52,1.43-13.28,2.38-14.39,1.65-1.91,7.68-1.86,7.06,2.19-.3,1.93-6.75,14.95-9.44,12.21ZM498.58,404.75l-3.73.11-1.06,8.51,4.79-8.62Z"/>
      <path class="cls-1" d="M513.94,162.99c-.49-6.77,1.13-12.73,7.19-16.29,1.58,1.17,1.32,1.25,1.02,2.89-.75,4.06-3.05,15.24-8.21,13.4ZM516.8,160.1l1.92-7.67c-1.91.33-1.52,2.08-1.94,3.32-.19.55-1.68,4.64.02,4.34Z"/>
      <path class="cls-1" d="M653.09,305.93c-2.9-3.11,10.96-12.27,13.42-13.43.05,7.67-6.11,12.81-13.42,13.43ZM662.68,298.26c-2.02-.25-3.77,2.07-4.8,3.82,2.02.25,3.77-2.07,4.8-3.82Z"/>
      <path class="cls-1" d="M507.21,200.4l-1.03,14.31c-3.78.53-8.2.02-9.18-4.24,1.83-4.59,4.39-10.23,10.21-10.07ZM505.29,203.28c-1.32-1.49-8.29,6.84-4.84,9.16l3.88.44.96-9.6Z"/>
      <path class="cls-1" d="M375.74,444.08c2.41,2.15-13.42,10.66-16.3,8.62-.08-8.64,9.96-7.83,16.3-8.62ZM369.71,446.17l-7.62,2.54.6,1.81,7.62-2.54-.6-1.81Z"/>
      <path class="cls-1" d="M560.95,146.68l-.89,5.34-11.58,8.08c1.99-6.27,4.9-13.27,12.47-13.42ZM558.07,151.47v-1.91s-1.91,1.44-1.91,1.44l1.91.47Z"/>
      <path class="cls-1" d="M500.48,196.56c-4.28,3.06-4.78-17.6,3.32-15.33,4.68,1.31-2.24,12.81-3.32,15.33ZM503.38,184.1c-4.22.14-4.11,4.43-3.83,7.67,2.99-1.29,2.5-5.18,3.83-7.67Z"/>
      <path class="cls-1" d="M550.39,300.17c-5.51-.87-14.05-2.98-14.39-9.58,7.62-.02,13.97.62,14.39,9.58ZM547.51,297.29c-.17-4.21-4.43-4.11-7.67-3.82.19,1.9,7.22,4.26,7.67,3.82Z"/>
      <path class="cls-1" d="M500.5,61.29h-17.75l-.97-1.92c5.17-7.03,13.49-3,18.72,1.92ZM492.81,58.43l-6.71-.97c-2.75,2.1,6.62,3.08,6.71.97Z"/>
      <path class="cls-1" d="M469.8,204.24c-1.29-2.78,3.84-17.24,6.23-17.25,4.46,5.98-1.09,13.71-6.23,17.25ZM474.57,196.55c.28-.3,1.2-4.27.96-4.78-1.28-.53-2.27,3.99-1.9,4.79.31-.05.81.13.94,0Z"/>
      <path class="cls-1" d="M529.28,255.06c-3.8.78-4.7,5.29-8.97,2.8s-3.53-6.35-2.53-10.45c1.37-1.19,12.77,5.84,11.5,7.66ZM519.69,250.29c-2.09,8.64,9.67,6.42,3.55,1.71-1.11-.85-2.03-1.98-3.55-1.71Z"/>
      <path class="cls-1" d="M514.89,123.65c-5.47-1.01-12.38-5.44-12.46-11.5,6.9.37,13.42,3.66,12.46,11.5ZM512.97,120.76c-1.25-3.38-3.82-5.97-7.68-5.74.35,1.6,6.75,6.57,7.68,5.74Z"/>
      <path class="cls-1" d="M661.71,314.57c-1.93,6.05,2.18,11.22,1.92,17.26-8.59-2.32-7.41-8.7-4.27-15.35.67-1.42-.15-2.38,2.36-1.91ZM660.75,327.03c.39-1.25-1.44-4.82-1.9-3.83-.26,1.71.06,3.36,1.9,3.83Z"/>
      <path class="cls-1" d="M736.44,243.43l-3.73.7c-5.58-.5-1.78-13.45.51-13.98,3.35-.78,3.83,11.29,3.22,13.29ZM734.64,241.65l-1.9-7.66-.97,7.67h2.87Z"/>
      <path class="cls-1" d="M484.19,243.57c.88-.97,9.68,7.72,10.1,8.65.93,2.04.18,3.06-1.49,4.35-6.74-.06-8.6-7.27-8.61-13ZM491.86,254.12c1.03-1.03-3.61-5.35-4.78-5.75-1.13,2.1,3.65,6.88,4.78,5.75Z"/>
      <path class="cls-1" d="M517.77,449.84c1.23,7.71-6.18,10.43-12.46,11.5l.59-2.97c4.69-1.03,6.25-7.86,11.87-8.53ZM514.89,455.58v-1.91s-1.91,1.44-1.91,1.44l1.91.47Z"/>
      <path class="cls-1" d="M728.71,159.36c3.47,2.01,3.33,12.41,3.05,16.09-5.25-3.24-4.84-10.81-5.74-16.3.88.06,1.87-.26,2.69.21Z"/>
      <path class="cls-1" d="M463.8,464.45c2.05-.25,3.57-.87,5.01,1.21-.1,2.83-13.97,6.72-16.28,2.88,0-1.17,9.65-3.89,11.27-4.09Z"/>
      <path class="cls-1" d="M637.72,313.6c-.98-3.77,1.91-4.51,3.3-6.77,1.16-1.88.15-6.23,4.42-4.29,4,5.21-1.02,12.97-7.71,11.07ZM639.64,311.68c4.11.64,5-3.48,4.79-6.7-1.73.01-.99,2.77-1.85,4.14-.66,1.04-2.78,1.05-2.94,2.56Z"/>
      <path class="cls-1" d="M688.58,379.8c.46,3.14-.58,5.38-2.07,7.99-.94,1.64-4.39,6.12-6.55,6.39,2.4-4.74,1.92-14.45,8.63-14.38Z"/>
      <path class="cls-1" d="M570.55,296.34c-1.21,2.73-1.8,14.82-6.22,13.42-5.29-2.74,4.54-15.15,6.22-13.42ZM565.74,306.88c.13-.14,1.11-3.5.96-3.82-1.39-.27-1.65,2.37-1.9,3.82.31-.05.82.13.94,0Z"/>
      <path class="cls-1" d="M577.27,143.79c1.61-6.41,8.23-11.12,13.41-5.27-3.45,4.21-8.01,5.99-13.41,5.27ZM587.82,138.05c-2.99-.37-6.65.09-6.71,3.82.68.65,6.6-1.93,6.71-3.82Z"/>
      <path class="cls-1" d="M678.03,144.75c-2.62.19-5.05-.66-7.38-1.72-.87-.39-5.53-3.38-5.08-4.5,1.31-3.21,14.14,1.65,12.46,6.22Z"/>
      <path class="cls-1" d="M665.56,366.37c7.13-.07,3.7,13.29.47,13.41-2.79.1.57-11.64-.47-13.41Z"/>
      <path class="cls-1" d="M673.23,188.88l-12.47,1.92c-.58-6.65,10.99-7.92,12.47-1.92ZM667.47,186.98h-1.91v.94h1.91v-.94Z"/>
      <path class="cls-1" d="M700.57,190.83c3.97.17,13.41,8.91,5.87,8.57-6.54-.29-8.78-8.31-5.87-8.57ZM705.86,196.55l-3.83-2.87c-.25,2.42,1.53,3.24,3.83,2.87Z"/>
      <path class="cls-1" d="M510.1,64.17c5.27-1.53,7.77,10.75,4.3,11.5-3.5.01-5.15-10.63-4.3-11.5ZM513.92,71.84v-2.87h-.94v2.87h.94Z"/>
      <path class="cls-1" d="M742.32,222.47c1.62,4.13,1.55,11.58-3.82,12.46.3-4.05-1.65-11.62,3.82-12.46ZM741.36,229.17v-1.91h-.94v1.91h.94Z"/>
      <path class="cls-1" d="M586.86,201.35c.97-4.27,11.33-8.01,12.47-3.34.96,3.92-10.59,3.6-12.47,3.34ZM595.5,198.49h-3.83v.94h3.83v-.94Z"/>
      <path class="cls-1" d="M698.18,143.8c-1.14,3.57,1.83,6.13,2.47,8.58,1.28,4.91-5.82,1.47-6.34-1.42-.44-2.46.55-7.32,3.87-7.17ZM697.21,151.47v-1.91h-.94v1.91h.94Z"/>
      <path class="cls-1" d="M728.89,244.53c1,4.86-3.65,6.27-7.39,7.48-1.5.49-1.5,2.02-3.15-.31l7.12-6.29,3.42-.89Z"/>
      <path class="cls-1" d="M523.53,156.26c-.65-.7,1.94-7.26,2.42-8.62.35-.99.05-3.76,1.88-2.87,4.94,2.41-2.49,13.47-4.3,11.5Z"/>
      <path class="cls-1" d="M659.79,284.82c-4.27.41-6.32-4.17-6.71-7.66,4.69-.04,7.6,2.83,6.71,7.66Z"/>
      <path class="cls-1" d="M816.99,85.06c-.82.47-1.81.15-2.69.21-.63-.57,2.76-7.99-.47-6.7-2.81,1.72-3.47,5.03-5.29,7.23-.67.81-2.03,1.03-2.6,1.67-1.94,2.2-1.73,5.71-7,5.47-.71-3.96,3.32-4.67,5.17-6.81,2.83-3.26,5.35-7.07,7.29-10.94-6.55-1.07-7.71,9.91-14.38,10.08-.32-4.09,3.43-6.36,5.18-9.68,1.11-2.11,1.26-6.03,2.49-7.09,4.46-3.84,17.53,2.31,16.13,9.35-.18.89-3.49,7.01-3.84,7.22ZM819.09,77.6c-.14-6.13-8.19-8.46-13.38-7.62l-1,4.74c1.59,1.33,4.98-5.71,8.1-.85.54.84.41,2.6.58,2.76.09.09,1.49-.83,2.19-.64,1.4.37,1.78,2.04,3.52,1.61Z"/>
      <path class="cls-1" d="M782.63,101.57c-8.67,2.13-15.07,6.03-23.98,1.91l2.5-5.67c7.97,5.79,12.65-4.57,19.9,1.04,1.07.83,1.97.99,1.59,2.71ZM778.79,99.68c-4.02-2.06-6.08,1.6-10.07,1.95-2.64.23-4.74-.98-7.19-.53l6.2,2.46,11.06-3.88Z"/>
      <path class="cls-1" d="M824.84,82.4c.1,2.15,1.82,4.28,1.9,6.33.22,5.49-9.81,14.84-12.47,6.58-.13-1.13.31-2.07.74-3.07.61-1.38,8.52-10.81,9.82-9.84ZM822.63,93.61c2.21-2.7,2.05-5.14,1.26-8.34l-7.55,9.26c-.34,4.2,5.05.6,6.29-.92Z"/>
      <path class="cls-1" d="M797.02,87.2l-.97,3.83c-4.15.09-2.9-4.88.97-3.83Z"/>
    </g>
  </g>
</svg>